M48
; DRILL file {KiCad 5.1.10-88a1d61d58~90~ubuntu21.04.1} date Sun Nov  7 22:57:29 2021
; FORMAT={-:-/ absolute / inch / decimal}
; #@! TF.CreationDate,2021-11-07T22:57:29+01:00
; #@! TF.GenerationSoftware,Kicad,Pcbnew,5.1.10-88a1d61d58~90~ubuntu21.04.1
FMAT,2
INCH
T1C0.0394
T2C0.1181
%
G90
G05
T1
X1.9Y-2.25
X1.9Y-2.35
X1.9Y-2.45
X2.3Y-1.95
X2.3Y-2.25
X2.3Y-2.44
X2.3Y-2.95
X2.4Y-1.95
X2.4Y-2.25
X2.4Y-2.44
X2.4Y-2.95
X2.5Y-1.6
X2.5Y-1.95
X2.5Y-2.25
X2.5Y-2.44
X2.5Y-2.95
X2.6Y-1.6
X2.6Y-1.95
X2.6Y-2.25
X2.6Y-2.44
X2.6Y-2.95
X2.83Y-1.35
X2.93Y-1.35
X3.03Y-1.35
X3.13Y-3.3
X3.2Y-1.95
X3.2Y-2.95
X3.23Y-3.3
X3.3Y-1.95
X3.3Y-2.95
X3.33Y-3.3
X3.38Y-1.35
X3.4Y-1.95
X3.4Y-2.95
X3.48Y-1.35
X3.5Y-1.95
X3.5Y-2.95
X3.58Y-1.35
X3.6Y-1.95
X3.6Y-2.95
X3.7Y-1.95
X3.7Y-2.95
X3.8Y-1.95
X3.8Y-2.95
X3.9Y-1.95
X3.9Y-2.95
X3.93Y-1.35
X4.0Y-1.95
X4.0Y-2.95
X4.03Y-1.35
X4.1Y-1.95
X4.1Y-2.95
X4.13Y-1.35
X4.2Y-1.95
X4.2Y-2.95
X4.2Y-3.3
X4.3Y-1.95
X4.3Y-2.95
X4.3Y-3.3
X4.4Y-1.95
X4.4Y-2.95
X4.4Y-3.3
X4.43Y-1.35
X4.5Y-1.95
X4.5Y-2.95
X4.53Y-1.35
X4.6Y-1.95
X4.6Y-2.95
X4.63Y-1.35
X4.7Y-1.95
X4.7Y-2.95
X4.8Y-1.95
X4.8Y-2.95
X4.9Y-1.95
X4.9Y-2.95
X5.0Y-1.95
X5.0Y-2.95
T2
X1.7717Y-1.063
X1.7717Y-4.2913
X5.0Y-1.063
X5.0Y-4.2913
T0
M30
