%TF.GenerationSoftware,KiCad,Pcbnew,5.1.10-88a1d61d58~90~ubuntu21.04.1*%
%TF.CreationDate,2021-11-07T21:43:53+01:00*%
%TF.ProjectId,terrarium,74657272-6172-4697-956d-2e6b69636164,rev?*%
%TF.SameCoordinates,Original*%
%TF.FileFunction,Copper,L2,Bot*%
%TF.FilePolarity,Positive*%
%FSLAX46Y46*%
G04 Gerber Fmt 4.6, Leading zero omitted, Abs format (unit mm)*
G04 Created by KiCad (PCBNEW 5.1.10-88a1d61d58~90~ubuntu21.04.1) date 2021-11-07 21:43:53*
%MOMM*%
%LPD*%
G01*
G04 APERTURE LIST*
%TA.AperFunction,ComponentPad*%
%ADD10O,1.700000X1.700000*%
%TD*%
%TA.AperFunction,ComponentPad*%
%ADD11R,1.700000X1.700000*%
%TD*%
%TA.AperFunction,ViaPad*%
%ADD12C,5.000000*%
%TD*%
%TA.AperFunction,Conductor*%
%ADD13C,0.400000*%
%TD*%
%ADD14C,0.254000*%
%ADD15C,0.100000*%
%TA.AperFunction,Conductor*%
%ADD16C,0.254000*%
%TD*%
%TA.AperFunction,Conductor*%
%ADD17C,0.100000*%
%TD*%
G04 APERTURE END LIST*
D10*
%TO.P,i2c4,4*%
%TO.N,SCL*%
X58420000Y-61976000D03*
%TO.P,i2c4,3*%
%TO.N,SDA*%
X60960000Y-61976000D03*
%TO.P,i2c4,2*%
%TO.N,3v3*%
X63500000Y-61976000D03*
D11*
%TO.P,i2c4,1*%
%TO.N,GND*%
X66040000Y-61976000D03*
%TD*%
D10*
%TO.P,rxtx1,2*%
%TO.N,TX*%
X63500000Y-40640000D03*
D11*
%TO.P,rxtx1,1*%
%TO.N,RX*%
X66040000Y-40640000D03*
%TD*%
D10*
%TO.P,i2c3,4*%
%TO.N,SCL*%
X58420000Y-57150000D03*
%TO.P,i2c3,3*%
%TO.N,SDA*%
X60960000Y-57150000D03*
%TO.P,i2c3,2*%
%TO.N,VCC*%
X63500000Y-57150000D03*
D11*
%TO.P,i2c3,1*%
%TO.N,GND*%
X66040000Y-57150000D03*
%TD*%
D10*
%TO.P,ExternalPower1,3*%
%TO.N,VCC*%
X48260000Y-57150000D03*
%TO.P,ExternalPower1,2*%
%TO.N,3v3*%
X48260000Y-59690000D03*
D11*
%TO.P,ExternalPower1,1*%
%TO.N,GND*%
X48260000Y-62230000D03*
%TD*%
D10*
%TO.P,temp4,3*%
%TO.N,VCC*%
X71882000Y-34290000D03*
%TO.P,temp4,2*%
%TO.N,G19*%
X74422000Y-34290000D03*
D11*
%TO.P,temp4,1*%
%TO.N,GND*%
X76962000Y-34290000D03*
%TD*%
D10*
%TO.P,temp3,3*%
%TO.N,VCC*%
X85852000Y-34290000D03*
%TO.P,temp3,2*%
%TO.N,G18*%
X88392000Y-34290000D03*
D11*
%TO.P,temp3,1*%
%TO.N,GND*%
X90932000Y-34290000D03*
%TD*%
D10*
%TO.P,temp2,3*%
%TO.N,VCC*%
X99822000Y-34290000D03*
%TO.P,temp2,2*%
%TO.N,G17*%
X102362000Y-34290000D03*
D11*
%TO.P,temp2,1*%
%TO.N,GND*%
X104902000Y-34290000D03*
%TD*%
D10*
%TO.P,temp1,3*%
%TO.N,VCC*%
X112522000Y-34290000D03*
%TO.P,temp1,2*%
%TO.N,G16*%
X115062000Y-34290000D03*
D11*
%TO.P,temp1,1*%
%TO.N,GND*%
X117602000Y-34290000D03*
%TD*%
D10*
%TO.P,relay2,3*%
%TO.N,G5*%
X84582000Y-83820000D03*
%TO.P,relay2,2*%
%TO.N,VCC*%
X82042000Y-83820000D03*
D11*
%TO.P,relay2,1*%
%TO.N,GND*%
X79502000Y-83820000D03*
%TD*%
D10*
%TO.P,relay1,3*%
%TO.N,G4*%
X111760000Y-83820000D03*
%TO.P,relay1,2*%
%TO.N,VCC*%
X109220000Y-83820000D03*
D11*
%TO.P,relay1,1*%
%TO.N,GND*%
X106680000Y-83820000D03*
%TD*%
D10*
%TO.P,i2c2,4*%
%TO.N,SCL*%
X58420000Y-49530000D03*
%TO.P,i2c2,3*%
%TO.N,SDA*%
X60960000Y-49530000D03*
%TO.P,i2c2,2*%
%TO.N,VCC*%
X63500000Y-49530000D03*
D11*
%TO.P,i2c2,1*%
%TO.N,GND*%
X66040000Y-49530000D03*
%TD*%
D10*
%TO.P,i2c1,4*%
%TO.N,SCL*%
X58420000Y-74930000D03*
%TO.P,i2c1,3*%
%TO.N,SDA*%
X60960000Y-74930000D03*
%TO.P,i2c1,2*%
%TO.N,3v3*%
X63500000Y-74930000D03*
D11*
%TO.P,i2c1,1*%
%TO.N,GND*%
X66040000Y-74930000D03*
%TD*%
D10*
%TO.P,esp32-right1,19*%
%TO.N,3v3*%
X81280000Y-74930000D03*
%TO.P,esp32-right1,18*%
%TO.N,Net-(esp32-right1-Pad18)*%
X83820000Y-74930000D03*
%TO.P,esp32-right1,17*%
%TO.N,Net-(esp32-right1-Pad17)*%
X86360000Y-74930000D03*
%TO.P,esp32-right1,16*%
%TO.N,Net-(esp32-right1-Pad16)*%
X88900000Y-74930000D03*
%TO.P,esp32-right1,15*%
%TO.N,Net-(esp32-right1-Pad15)*%
X91440000Y-74930000D03*
%TO.P,esp32-right1,14*%
%TO.N,Net-(esp32-right1-Pad14)*%
X93980000Y-74930000D03*
%TO.P,esp32-right1,13*%
%TO.N,Net-(esp32-right1-Pad13)*%
X96520000Y-74930000D03*
%TO.P,esp32-right1,12*%
%TO.N,Net-(esp32-right1-Pad12)*%
X99060000Y-74930000D03*
%TO.P,esp32-right1,11*%
%TO.N,Net-(esp32-right1-Pad11)*%
X101600000Y-74930000D03*
%TO.P,esp32-right1,10*%
%TO.N,Net-(esp32-right1-Pad10)*%
X104140000Y-74930000D03*
%TO.P,esp32-right1,9*%
%TO.N,Net-(esp32-right1-Pad9)*%
X106680000Y-74930000D03*
%TO.P,esp32-right1,8*%
%TO.N,Net-(esp32-right1-Pad8)*%
X109220000Y-74930000D03*
%TO.P,esp32-right1,7*%
%TO.N,Net-(esp32-right1-Pad7)*%
X111760000Y-74930000D03*
%TO.P,esp32-right1,6*%
%TO.N,Net-(esp32-right1-Pad6)*%
X114300000Y-74930000D03*
%TO.P,esp32-right1,5*%
%TO.N,Net-(esp32-right1-Pad5)*%
X116840000Y-74930000D03*
%TO.P,esp32-right1,4*%
%TO.N,Net-(esp32-right1-Pad4)*%
X119380000Y-74930000D03*
%TO.P,esp32-right1,3*%
%TO.N,Net-(esp32-right1-Pad3)*%
X121920000Y-74930000D03*
%TO.P,esp32-right1,2*%
%TO.N,Net-(esp32-right1-Pad2)*%
X124460000Y-74930000D03*
D11*
%TO.P,esp32-right1,1*%
%TO.N,VCC*%
X127000000Y-74930000D03*
%TD*%
D10*
%TO.P,esp32-left1,19*%
%TO.N,GND*%
X81280000Y-49530000D03*
%TO.P,esp32-left1,18*%
%TO.N,Net-(esp32-left1-Pad18)*%
X83820000Y-49530000D03*
%TO.P,esp32-left1,17*%
%TO.N,SCL*%
X86360000Y-49530000D03*
%TO.P,esp32-left1,16*%
%TO.N,TX*%
X88900000Y-49530000D03*
%TO.P,esp32-left1,15*%
%TO.N,RX*%
X91440000Y-49530000D03*
%TO.P,esp32-left1,14*%
%TO.N,SDA*%
X93980000Y-49530000D03*
%TO.P,esp32-left1,13*%
%TO.N,GND*%
X96520000Y-49530000D03*
%TO.P,esp32-left1,12*%
%TO.N,G19*%
X99060000Y-49530000D03*
%TO.P,esp32-left1,11*%
%TO.N,G18*%
X101600000Y-49530000D03*
%TO.P,esp32-left1,10*%
%TO.N,G5*%
X104140000Y-49530000D03*
%TO.P,esp32-left1,9*%
%TO.N,G17*%
X106680000Y-49530000D03*
%TO.P,esp32-left1,8*%
%TO.N,G16*%
X109220000Y-49530000D03*
%TO.P,esp32-left1,7*%
%TO.N,G4*%
X111760000Y-49530000D03*
%TO.P,esp32-left1,6*%
%TO.N,Net-(esp32-left1-Pad6)*%
X114300000Y-49530000D03*
%TO.P,esp32-left1,5*%
%TO.N,Net-(esp32-left1-Pad5)*%
X116840000Y-49530000D03*
%TO.P,esp32-left1,4*%
%TO.N,Net-(esp32-left1-Pad4)*%
X119380000Y-49530000D03*
%TO.P,esp32-left1,3*%
%TO.N,Net-(esp32-left1-Pad3)*%
X121920000Y-49530000D03*
%TO.P,esp32-left1,2*%
%TO.N,Net-(esp32-left1-Pad2)*%
X124460000Y-49530000D03*
D11*
%TO.P,esp32-left1,1*%
%TO.N,Net-(esp32-left1-Pad1)*%
X127000000Y-49530000D03*
%TD*%
D12*
%TO.N,*%
X45000000Y-27000000D03*
X45000000Y-109000000D03*
X127000000Y-109000000D03*
X127000000Y-27000000D03*
%TD*%
D13*
%TO.N,VCC*%
X71882000Y-41148000D02*
X63500000Y-49530000D01*
X71882000Y-34290000D02*
X71882000Y-41148000D01*
X63500000Y-49530000D02*
X63500000Y-57150000D01*
%TD*%
D14*
X130873000Y-112873000D02*
X41127000Y-112873000D01*
X41127000Y-23127000D01*
X130873000Y-23127000D01*
X130873000Y-112873000D01*
D15*
G36*
X130873000Y-112873000D02*
G01*
X41127000Y-112873000D01*
X41127000Y-23127000D01*
X130873000Y-23127000D01*
X130873000Y-112873000D01*
G37*
D16*
%TO.N,GND*%
X129413000Y-92583000D02*
X45847000Y-92583000D01*
X45847000Y-84670000D01*
X78013928Y-84670000D01*
X78026188Y-84794482D01*
X78062498Y-84914180D01*
X78121463Y-85024494D01*
X78200815Y-85121185D01*
X78297506Y-85200537D01*
X78407820Y-85259502D01*
X78527518Y-85295812D01*
X78652000Y-85308072D01*
X79216250Y-85305000D01*
X79375000Y-85146250D01*
X79375000Y-83947000D01*
X78175750Y-83947000D01*
X78017000Y-84105750D01*
X78013928Y-84670000D01*
X45847000Y-84670000D01*
X45847000Y-82970000D01*
X78013928Y-82970000D01*
X78017000Y-83534250D01*
X78175750Y-83693000D01*
X79375000Y-83693000D01*
X79375000Y-82493750D01*
X79629000Y-82493750D01*
X79629000Y-83693000D01*
X79649000Y-83693000D01*
X79649000Y-83947000D01*
X79629000Y-83947000D01*
X79629000Y-85146250D01*
X79787750Y-85305000D01*
X80352000Y-85308072D01*
X80476482Y-85295812D01*
X80596180Y-85259502D01*
X80706494Y-85200537D01*
X80803185Y-85121185D01*
X80882537Y-85024494D01*
X80941502Y-84914180D01*
X80963513Y-84841620D01*
X81095368Y-84973475D01*
X81338589Y-85135990D01*
X81608842Y-85247932D01*
X81895740Y-85305000D01*
X82188260Y-85305000D01*
X82475158Y-85247932D01*
X82745411Y-85135990D01*
X82988632Y-84973475D01*
X83195475Y-84766632D01*
X83312000Y-84592240D01*
X83428525Y-84766632D01*
X83635368Y-84973475D01*
X83878589Y-85135990D01*
X84148842Y-85247932D01*
X84435740Y-85305000D01*
X84728260Y-85305000D01*
X85015158Y-85247932D01*
X85285411Y-85135990D01*
X85528632Y-84973475D01*
X85735475Y-84766632D01*
X85800042Y-84670000D01*
X105191928Y-84670000D01*
X105204188Y-84794482D01*
X105240498Y-84914180D01*
X105299463Y-85024494D01*
X105378815Y-85121185D01*
X105475506Y-85200537D01*
X105585820Y-85259502D01*
X105705518Y-85295812D01*
X105830000Y-85308072D01*
X106394250Y-85305000D01*
X106553000Y-85146250D01*
X106553000Y-83947000D01*
X105353750Y-83947000D01*
X105195000Y-84105750D01*
X105191928Y-84670000D01*
X85800042Y-84670000D01*
X85897990Y-84523411D01*
X86009932Y-84253158D01*
X86067000Y-83966260D01*
X86067000Y-83673740D01*
X86009932Y-83386842D01*
X85897990Y-83116589D01*
X85800043Y-82970000D01*
X105191928Y-82970000D01*
X105195000Y-83534250D01*
X105353750Y-83693000D01*
X106553000Y-83693000D01*
X106553000Y-82493750D01*
X106807000Y-82493750D01*
X106807000Y-83693000D01*
X106827000Y-83693000D01*
X106827000Y-83947000D01*
X106807000Y-83947000D01*
X106807000Y-85146250D01*
X106965750Y-85305000D01*
X107530000Y-85308072D01*
X107654482Y-85295812D01*
X107774180Y-85259502D01*
X107884494Y-85200537D01*
X107981185Y-85121185D01*
X108060537Y-85024494D01*
X108119502Y-84914180D01*
X108141513Y-84841620D01*
X108273368Y-84973475D01*
X108516589Y-85135990D01*
X108786842Y-85247932D01*
X109073740Y-85305000D01*
X109366260Y-85305000D01*
X109653158Y-85247932D01*
X109923411Y-85135990D01*
X110166632Y-84973475D01*
X110373475Y-84766632D01*
X110490000Y-84592240D01*
X110606525Y-84766632D01*
X110813368Y-84973475D01*
X111056589Y-85135990D01*
X111326842Y-85247932D01*
X111613740Y-85305000D01*
X111906260Y-85305000D01*
X112193158Y-85247932D01*
X112463411Y-85135990D01*
X112706632Y-84973475D01*
X112913475Y-84766632D01*
X113075990Y-84523411D01*
X113187932Y-84253158D01*
X113245000Y-83966260D01*
X113245000Y-83673740D01*
X113187932Y-83386842D01*
X113075990Y-83116589D01*
X112913475Y-82873368D01*
X112706632Y-82666525D01*
X112463411Y-82504010D01*
X112193158Y-82392068D01*
X111906260Y-82335000D01*
X111613740Y-82335000D01*
X111326842Y-82392068D01*
X111056589Y-82504010D01*
X110813368Y-82666525D01*
X110606525Y-82873368D01*
X110490000Y-83047760D01*
X110373475Y-82873368D01*
X110166632Y-82666525D01*
X109923411Y-82504010D01*
X109653158Y-82392068D01*
X109366260Y-82335000D01*
X109073740Y-82335000D01*
X108786842Y-82392068D01*
X108516589Y-82504010D01*
X108273368Y-82666525D01*
X108141513Y-82798380D01*
X108119502Y-82725820D01*
X108060537Y-82615506D01*
X107981185Y-82518815D01*
X107884494Y-82439463D01*
X107774180Y-82380498D01*
X107654482Y-82344188D01*
X107530000Y-82331928D01*
X106965750Y-82335000D01*
X106807000Y-82493750D01*
X106553000Y-82493750D01*
X106394250Y-82335000D01*
X105830000Y-82331928D01*
X105705518Y-82344188D01*
X105585820Y-82380498D01*
X105475506Y-82439463D01*
X105378815Y-82518815D01*
X105299463Y-82615506D01*
X105240498Y-82725820D01*
X105204188Y-82845518D01*
X105191928Y-82970000D01*
X85800043Y-82970000D01*
X85735475Y-82873368D01*
X85528632Y-82666525D01*
X85285411Y-82504010D01*
X85015158Y-82392068D01*
X84728260Y-82335000D01*
X84435740Y-82335000D01*
X84148842Y-82392068D01*
X83878589Y-82504010D01*
X83635368Y-82666525D01*
X83428525Y-82873368D01*
X83312000Y-83047760D01*
X83195475Y-82873368D01*
X82988632Y-82666525D01*
X82745411Y-82504010D01*
X82475158Y-82392068D01*
X82188260Y-82335000D01*
X81895740Y-82335000D01*
X81608842Y-82392068D01*
X81338589Y-82504010D01*
X81095368Y-82666525D01*
X80963513Y-82798380D01*
X80941502Y-82725820D01*
X80882537Y-82615506D01*
X80803185Y-82518815D01*
X80706494Y-82439463D01*
X80596180Y-82380498D01*
X80476482Y-82344188D01*
X80352000Y-82331928D01*
X79787750Y-82335000D01*
X79629000Y-82493750D01*
X79375000Y-82493750D01*
X79216250Y-82335000D01*
X78652000Y-82331928D01*
X78527518Y-82344188D01*
X78407820Y-82380498D01*
X78297506Y-82439463D01*
X78200815Y-82518815D01*
X78121463Y-82615506D01*
X78062498Y-82725820D01*
X78026188Y-82845518D01*
X78013928Y-82970000D01*
X45847000Y-82970000D01*
X45847000Y-74783740D01*
X56935000Y-74783740D01*
X56935000Y-75076260D01*
X56992068Y-75363158D01*
X57104010Y-75633411D01*
X57266525Y-75876632D01*
X57473368Y-76083475D01*
X57716589Y-76245990D01*
X57986842Y-76357932D01*
X58273740Y-76415000D01*
X58566260Y-76415000D01*
X58853158Y-76357932D01*
X59123411Y-76245990D01*
X59366632Y-76083475D01*
X59573475Y-75876632D01*
X59690000Y-75702240D01*
X59806525Y-75876632D01*
X60013368Y-76083475D01*
X60256589Y-76245990D01*
X60526842Y-76357932D01*
X60813740Y-76415000D01*
X61106260Y-76415000D01*
X61393158Y-76357932D01*
X61663411Y-76245990D01*
X61906632Y-76083475D01*
X62113475Y-75876632D01*
X62230000Y-75702240D01*
X62346525Y-75876632D01*
X62553368Y-76083475D01*
X62796589Y-76245990D01*
X63066842Y-76357932D01*
X63353740Y-76415000D01*
X63646260Y-76415000D01*
X63933158Y-76357932D01*
X64203411Y-76245990D01*
X64446632Y-76083475D01*
X64578487Y-75951620D01*
X64600498Y-76024180D01*
X64659463Y-76134494D01*
X64738815Y-76231185D01*
X64835506Y-76310537D01*
X64945820Y-76369502D01*
X65065518Y-76405812D01*
X65190000Y-76418072D01*
X65754250Y-76415000D01*
X65913000Y-76256250D01*
X65913000Y-75057000D01*
X66167000Y-75057000D01*
X66167000Y-76256250D01*
X66325750Y-76415000D01*
X66890000Y-76418072D01*
X67014482Y-76405812D01*
X67134180Y-76369502D01*
X67244494Y-76310537D01*
X67341185Y-76231185D01*
X67420537Y-76134494D01*
X67479502Y-76024180D01*
X67515812Y-75904482D01*
X67528072Y-75780000D01*
X67525000Y-75215750D01*
X67366250Y-75057000D01*
X66167000Y-75057000D01*
X65913000Y-75057000D01*
X65893000Y-75057000D01*
X65893000Y-74803000D01*
X65913000Y-74803000D01*
X65913000Y-73603750D01*
X66167000Y-73603750D01*
X66167000Y-74803000D01*
X67366250Y-74803000D01*
X67385510Y-74783740D01*
X79795000Y-74783740D01*
X79795000Y-75076260D01*
X79852068Y-75363158D01*
X79964010Y-75633411D01*
X80126525Y-75876632D01*
X80333368Y-76083475D01*
X80576589Y-76245990D01*
X80846842Y-76357932D01*
X81133740Y-76415000D01*
X81426260Y-76415000D01*
X81713158Y-76357932D01*
X81983411Y-76245990D01*
X82226632Y-76083475D01*
X82433475Y-75876632D01*
X82550000Y-75702240D01*
X82666525Y-75876632D01*
X82873368Y-76083475D01*
X83116589Y-76245990D01*
X83386842Y-76357932D01*
X83673740Y-76415000D01*
X83966260Y-76415000D01*
X84253158Y-76357932D01*
X84523411Y-76245990D01*
X84766632Y-76083475D01*
X84973475Y-75876632D01*
X85090000Y-75702240D01*
X85206525Y-75876632D01*
X85413368Y-76083475D01*
X85656589Y-76245990D01*
X85926842Y-76357932D01*
X86213740Y-76415000D01*
X86506260Y-76415000D01*
X86793158Y-76357932D01*
X87063411Y-76245990D01*
X87306632Y-76083475D01*
X87513475Y-75876632D01*
X87630000Y-75702240D01*
X87746525Y-75876632D01*
X87953368Y-76083475D01*
X88196589Y-76245990D01*
X88466842Y-76357932D01*
X88753740Y-76415000D01*
X89046260Y-76415000D01*
X89333158Y-76357932D01*
X89603411Y-76245990D01*
X89846632Y-76083475D01*
X90053475Y-75876632D01*
X90170000Y-75702240D01*
X90286525Y-75876632D01*
X90493368Y-76083475D01*
X90736589Y-76245990D01*
X91006842Y-76357932D01*
X91293740Y-76415000D01*
X91586260Y-76415000D01*
X91873158Y-76357932D01*
X92143411Y-76245990D01*
X92386632Y-76083475D01*
X92593475Y-75876632D01*
X92710000Y-75702240D01*
X92826525Y-75876632D01*
X93033368Y-76083475D01*
X93276589Y-76245990D01*
X93546842Y-76357932D01*
X93833740Y-76415000D01*
X94126260Y-76415000D01*
X94413158Y-76357932D01*
X94683411Y-76245990D01*
X94926632Y-76083475D01*
X95133475Y-75876632D01*
X95250000Y-75702240D01*
X95366525Y-75876632D01*
X95573368Y-76083475D01*
X95816589Y-76245990D01*
X96086842Y-76357932D01*
X96373740Y-76415000D01*
X96666260Y-76415000D01*
X96953158Y-76357932D01*
X97223411Y-76245990D01*
X97466632Y-76083475D01*
X97673475Y-75876632D01*
X97790000Y-75702240D01*
X97906525Y-75876632D01*
X98113368Y-76083475D01*
X98356589Y-76245990D01*
X98626842Y-76357932D01*
X98913740Y-76415000D01*
X99206260Y-76415000D01*
X99493158Y-76357932D01*
X99763411Y-76245990D01*
X100006632Y-76083475D01*
X100213475Y-75876632D01*
X100330000Y-75702240D01*
X100446525Y-75876632D01*
X100653368Y-76083475D01*
X100896589Y-76245990D01*
X101166842Y-76357932D01*
X101453740Y-76415000D01*
X101746260Y-76415000D01*
X102033158Y-76357932D01*
X102303411Y-76245990D01*
X102546632Y-76083475D01*
X102753475Y-75876632D01*
X102870000Y-75702240D01*
X102986525Y-75876632D01*
X103193368Y-76083475D01*
X103436589Y-76245990D01*
X103706842Y-76357932D01*
X103993740Y-76415000D01*
X104286260Y-76415000D01*
X104573158Y-76357932D01*
X104843411Y-76245990D01*
X105086632Y-76083475D01*
X105293475Y-75876632D01*
X105410000Y-75702240D01*
X105526525Y-75876632D01*
X105733368Y-76083475D01*
X105976589Y-76245990D01*
X106246842Y-76357932D01*
X106533740Y-76415000D01*
X106826260Y-76415000D01*
X107113158Y-76357932D01*
X107383411Y-76245990D01*
X107626632Y-76083475D01*
X107833475Y-75876632D01*
X107950000Y-75702240D01*
X108066525Y-75876632D01*
X108273368Y-76083475D01*
X108516589Y-76245990D01*
X108786842Y-76357932D01*
X109073740Y-76415000D01*
X109366260Y-76415000D01*
X109653158Y-76357932D01*
X109923411Y-76245990D01*
X110166632Y-76083475D01*
X110373475Y-75876632D01*
X110490000Y-75702240D01*
X110606525Y-75876632D01*
X110813368Y-76083475D01*
X111056589Y-76245990D01*
X111326842Y-76357932D01*
X111613740Y-76415000D01*
X111906260Y-76415000D01*
X112193158Y-76357932D01*
X112463411Y-76245990D01*
X112706632Y-76083475D01*
X112913475Y-75876632D01*
X113030000Y-75702240D01*
X113146525Y-75876632D01*
X113353368Y-76083475D01*
X113596589Y-76245990D01*
X113866842Y-76357932D01*
X114153740Y-76415000D01*
X114446260Y-76415000D01*
X114733158Y-76357932D01*
X115003411Y-76245990D01*
X115246632Y-76083475D01*
X115453475Y-75876632D01*
X115570000Y-75702240D01*
X115686525Y-75876632D01*
X115893368Y-76083475D01*
X116136589Y-76245990D01*
X116406842Y-76357932D01*
X116693740Y-76415000D01*
X116986260Y-76415000D01*
X117273158Y-76357932D01*
X117543411Y-76245990D01*
X117786632Y-76083475D01*
X117993475Y-75876632D01*
X118110000Y-75702240D01*
X118226525Y-75876632D01*
X118433368Y-76083475D01*
X118676589Y-76245990D01*
X118946842Y-76357932D01*
X119233740Y-76415000D01*
X119526260Y-76415000D01*
X119813158Y-76357932D01*
X120083411Y-76245990D01*
X120326632Y-76083475D01*
X120533475Y-75876632D01*
X120650000Y-75702240D01*
X120766525Y-75876632D01*
X120973368Y-76083475D01*
X121216589Y-76245990D01*
X121486842Y-76357932D01*
X121773740Y-76415000D01*
X122066260Y-76415000D01*
X122353158Y-76357932D01*
X122623411Y-76245990D01*
X122866632Y-76083475D01*
X123073475Y-75876632D01*
X123190000Y-75702240D01*
X123306525Y-75876632D01*
X123513368Y-76083475D01*
X123756589Y-76245990D01*
X124026842Y-76357932D01*
X124313740Y-76415000D01*
X124606260Y-76415000D01*
X124893158Y-76357932D01*
X125163411Y-76245990D01*
X125406632Y-76083475D01*
X125538487Y-75951620D01*
X125560498Y-76024180D01*
X125619463Y-76134494D01*
X125698815Y-76231185D01*
X125795506Y-76310537D01*
X125905820Y-76369502D01*
X126025518Y-76405812D01*
X126150000Y-76418072D01*
X127850000Y-76418072D01*
X127974482Y-76405812D01*
X128094180Y-76369502D01*
X128204494Y-76310537D01*
X128301185Y-76231185D01*
X128380537Y-76134494D01*
X128439502Y-76024180D01*
X128475812Y-75904482D01*
X128488072Y-75780000D01*
X128488072Y-74080000D01*
X128475812Y-73955518D01*
X128439502Y-73835820D01*
X128380537Y-73725506D01*
X128301185Y-73628815D01*
X128204494Y-73549463D01*
X128094180Y-73490498D01*
X127974482Y-73454188D01*
X127850000Y-73441928D01*
X126150000Y-73441928D01*
X126025518Y-73454188D01*
X125905820Y-73490498D01*
X125795506Y-73549463D01*
X125698815Y-73628815D01*
X125619463Y-73725506D01*
X125560498Y-73835820D01*
X125538487Y-73908380D01*
X125406632Y-73776525D01*
X125163411Y-73614010D01*
X124893158Y-73502068D01*
X124606260Y-73445000D01*
X124313740Y-73445000D01*
X124026842Y-73502068D01*
X123756589Y-73614010D01*
X123513368Y-73776525D01*
X123306525Y-73983368D01*
X123190000Y-74157760D01*
X123073475Y-73983368D01*
X122866632Y-73776525D01*
X122623411Y-73614010D01*
X122353158Y-73502068D01*
X122066260Y-73445000D01*
X121773740Y-73445000D01*
X121486842Y-73502068D01*
X121216589Y-73614010D01*
X120973368Y-73776525D01*
X120766525Y-73983368D01*
X120650000Y-74157760D01*
X120533475Y-73983368D01*
X120326632Y-73776525D01*
X120083411Y-73614010D01*
X119813158Y-73502068D01*
X119526260Y-73445000D01*
X119233740Y-73445000D01*
X118946842Y-73502068D01*
X118676589Y-73614010D01*
X118433368Y-73776525D01*
X118226525Y-73983368D01*
X118110000Y-74157760D01*
X117993475Y-73983368D01*
X117786632Y-73776525D01*
X117543411Y-73614010D01*
X117273158Y-73502068D01*
X116986260Y-73445000D01*
X116693740Y-73445000D01*
X116406842Y-73502068D01*
X116136589Y-73614010D01*
X115893368Y-73776525D01*
X115686525Y-73983368D01*
X115570000Y-74157760D01*
X115453475Y-73983368D01*
X115246632Y-73776525D01*
X115003411Y-73614010D01*
X114733158Y-73502068D01*
X114446260Y-73445000D01*
X114153740Y-73445000D01*
X113866842Y-73502068D01*
X113596589Y-73614010D01*
X113353368Y-73776525D01*
X113146525Y-73983368D01*
X113030000Y-74157760D01*
X112913475Y-73983368D01*
X112706632Y-73776525D01*
X112463411Y-73614010D01*
X112193158Y-73502068D01*
X111906260Y-73445000D01*
X111613740Y-73445000D01*
X111326842Y-73502068D01*
X111056589Y-73614010D01*
X110813368Y-73776525D01*
X110606525Y-73983368D01*
X110490000Y-74157760D01*
X110373475Y-73983368D01*
X110166632Y-73776525D01*
X109923411Y-73614010D01*
X109653158Y-73502068D01*
X109366260Y-73445000D01*
X109073740Y-73445000D01*
X108786842Y-73502068D01*
X108516589Y-73614010D01*
X108273368Y-73776525D01*
X108066525Y-73983368D01*
X107950000Y-74157760D01*
X107833475Y-73983368D01*
X107626632Y-73776525D01*
X107383411Y-73614010D01*
X107113158Y-73502068D01*
X106826260Y-73445000D01*
X106533740Y-73445000D01*
X106246842Y-73502068D01*
X105976589Y-73614010D01*
X105733368Y-73776525D01*
X105526525Y-73983368D01*
X105410000Y-74157760D01*
X105293475Y-73983368D01*
X105086632Y-73776525D01*
X104843411Y-73614010D01*
X104573158Y-73502068D01*
X104286260Y-73445000D01*
X103993740Y-73445000D01*
X103706842Y-73502068D01*
X103436589Y-73614010D01*
X103193368Y-73776525D01*
X102986525Y-73983368D01*
X102870000Y-74157760D01*
X102753475Y-73983368D01*
X102546632Y-73776525D01*
X102303411Y-73614010D01*
X102033158Y-73502068D01*
X101746260Y-73445000D01*
X101453740Y-73445000D01*
X101166842Y-73502068D01*
X100896589Y-73614010D01*
X100653368Y-73776525D01*
X100446525Y-73983368D01*
X100330000Y-74157760D01*
X100213475Y-73983368D01*
X100006632Y-73776525D01*
X99763411Y-73614010D01*
X99493158Y-73502068D01*
X99206260Y-73445000D01*
X98913740Y-73445000D01*
X98626842Y-73502068D01*
X98356589Y-73614010D01*
X98113368Y-73776525D01*
X97906525Y-73983368D01*
X97790000Y-74157760D01*
X97673475Y-73983368D01*
X97466632Y-73776525D01*
X97223411Y-73614010D01*
X96953158Y-73502068D01*
X96666260Y-73445000D01*
X96373740Y-73445000D01*
X96086842Y-73502068D01*
X95816589Y-73614010D01*
X95573368Y-73776525D01*
X95366525Y-73983368D01*
X95250000Y-74157760D01*
X95133475Y-73983368D01*
X94926632Y-73776525D01*
X94683411Y-73614010D01*
X94413158Y-73502068D01*
X94126260Y-73445000D01*
X93833740Y-73445000D01*
X93546842Y-73502068D01*
X93276589Y-73614010D01*
X93033368Y-73776525D01*
X92826525Y-73983368D01*
X92710000Y-74157760D01*
X92593475Y-73983368D01*
X92386632Y-73776525D01*
X92143411Y-73614010D01*
X91873158Y-73502068D01*
X91586260Y-73445000D01*
X91293740Y-73445000D01*
X91006842Y-73502068D01*
X90736589Y-73614010D01*
X90493368Y-73776525D01*
X90286525Y-73983368D01*
X90170000Y-74157760D01*
X90053475Y-73983368D01*
X89846632Y-73776525D01*
X89603411Y-73614010D01*
X89333158Y-73502068D01*
X89046260Y-73445000D01*
X88753740Y-73445000D01*
X88466842Y-73502068D01*
X88196589Y-73614010D01*
X87953368Y-73776525D01*
X87746525Y-73983368D01*
X87630000Y-74157760D01*
X87513475Y-73983368D01*
X87306632Y-73776525D01*
X87063411Y-73614010D01*
X86793158Y-73502068D01*
X86506260Y-73445000D01*
X86213740Y-73445000D01*
X85926842Y-73502068D01*
X85656589Y-73614010D01*
X85413368Y-73776525D01*
X85206525Y-73983368D01*
X85090000Y-74157760D01*
X84973475Y-73983368D01*
X84766632Y-73776525D01*
X84523411Y-73614010D01*
X84253158Y-73502068D01*
X83966260Y-73445000D01*
X83673740Y-73445000D01*
X83386842Y-73502068D01*
X83116589Y-73614010D01*
X82873368Y-73776525D01*
X82666525Y-73983368D01*
X82550000Y-74157760D01*
X82433475Y-73983368D01*
X82226632Y-73776525D01*
X81983411Y-73614010D01*
X81713158Y-73502068D01*
X81426260Y-73445000D01*
X81133740Y-73445000D01*
X80846842Y-73502068D01*
X80576589Y-73614010D01*
X80333368Y-73776525D01*
X80126525Y-73983368D01*
X79964010Y-74226589D01*
X79852068Y-74496842D01*
X79795000Y-74783740D01*
X67385510Y-74783740D01*
X67525000Y-74644250D01*
X67528072Y-74080000D01*
X67515812Y-73955518D01*
X67479502Y-73835820D01*
X67420537Y-73725506D01*
X67341185Y-73628815D01*
X67244494Y-73549463D01*
X67134180Y-73490498D01*
X67014482Y-73454188D01*
X66890000Y-73441928D01*
X66325750Y-73445000D01*
X66167000Y-73603750D01*
X65913000Y-73603750D01*
X65754250Y-73445000D01*
X65190000Y-73441928D01*
X65065518Y-73454188D01*
X64945820Y-73490498D01*
X64835506Y-73549463D01*
X64738815Y-73628815D01*
X64659463Y-73725506D01*
X64600498Y-73835820D01*
X64578487Y-73908380D01*
X64446632Y-73776525D01*
X64203411Y-73614010D01*
X63933158Y-73502068D01*
X63646260Y-73445000D01*
X63353740Y-73445000D01*
X63066842Y-73502068D01*
X62796589Y-73614010D01*
X62553368Y-73776525D01*
X62346525Y-73983368D01*
X62230000Y-74157760D01*
X62113475Y-73983368D01*
X61906632Y-73776525D01*
X61663411Y-73614010D01*
X61393158Y-73502068D01*
X61106260Y-73445000D01*
X60813740Y-73445000D01*
X60526842Y-73502068D01*
X60256589Y-73614010D01*
X60013368Y-73776525D01*
X59806525Y-73983368D01*
X59690000Y-74157760D01*
X59573475Y-73983368D01*
X59366632Y-73776525D01*
X59123411Y-73614010D01*
X58853158Y-73502068D01*
X58566260Y-73445000D01*
X58273740Y-73445000D01*
X57986842Y-73502068D01*
X57716589Y-73614010D01*
X57473368Y-73776525D01*
X57266525Y-73983368D01*
X57104010Y-74226589D01*
X56992068Y-74496842D01*
X56935000Y-74783740D01*
X45847000Y-74783740D01*
X45847000Y-63080000D01*
X46771928Y-63080000D01*
X46784188Y-63204482D01*
X46820498Y-63324180D01*
X46879463Y-63434494D01*
X46958815Y-63531185D01*
X47055506Y-63610537D01*
X47165820Y-63669502D01*
X47285518Y-63705812D01*
X47410000Y-63718072D01*
X47974250Y-63715000D01*
X48133000Y-63556250D01*
X48133000Y-62357000D01*
X48387000Y-62357000D01*
X48387000Y-63556250D01*
X48545750Y-63715000D01*
X49110000Y-63718072D01*
X49234482Y-63705812D01*
X49354180Y-63669502D01*
X49464494Y-63610537D01*
X49561185Y-63531185D01*
X49640537Y-63434494D01*
X49699502Y-63324180D01*
X49735812Y-63204482D01*
X49748072Y-63080000D01*
X49745000Y-62515750D01*
X49586250Y-62357000D01*
X48387000Y-62357000D01*
X48133000Y-62357000D01*
X46933750Y-62357000D01*
X46775000Y-62515750D01*
X46771928Y-63080000D01*
X45847000Y-63080000D01*
X45847000Y-61380000D01*
X46771928Y-61380000D01*
X46775000Y-61944250D01*
X46933750Y-62103000D01*
X48133000Y-62103000D01*
X48133000Y-62083000D01*
X48387000Y-62083000D01*
X48387000Y-62103000D01*
X49586250Y-62103000D01*
X49745000Y-61944250D01*
X49745623Y-61829740D01*
X56935000Y-61829740D01*
X56935000Y-62122260D01*
X56992068Y-62409158D01*
X57104010Y-62679411D01*
X57266525Y-62922632D01*
X57473368Y-63129475D01*
X57716589Y-63291990D01*
X57986842Y-63403932D01*
X58273740Y-63461000D01*
X58566260Y-63461000D01*
X58853158Y-63403932D01*
X59123411Y-63291990D01*
X59366632Y-63129475D01*
X59573475Y-62922632D01*
X59690000Y-62748240D01*
X59806525Y-62922632D01*
X60013368Y-63129475D01*
X60256589Y-63291990D01*
X60526842Y-63403932D01*
X60813740Y-63461000D01*
X61106260Y-63461000D01*
X61393158Y-63403932D01*
X61663411Y-63291990D01*
X61906632Y-63129475D01*
X62113475Y-62922632D01*
X62230000Y-62748240D01*
X62346525Y-62922632D01*
X62553368Y-63129475D01*
X62796589Y-63291990D01*
X63066842Y-63403932D01*
X63353740Y-63461000D01*
X63646260Y-63461000D01*
X63933158Y-63403932D01*
X64203411Y-63291990D01*
X64446632Y-63129475D01*
X64578487Y-62997620D01*
X64600498Y-63070180D01*
X64659463Y-63180494D01*
X64738815Y-63277185D01*
X64835506Y-63356537D01*
X64945820Y-63415502D01*
X65065518Y-63451812D01*
X65190000Y-63464072D01*
X65754250Y-63461000D01*
X65913000Y-63302250D01*
X65913000Y-62103000D01*
X66167000Y-62103000D01*
X66167000Y-63302250D01*
X66325750Y-63461000D01*
X66890000Y-63464072D01*
X67014482Y-63451812D01*
X67134180Y-63415502D01*
X67244494Y-63356537D01*
X67341185Y-63277185D01*
X67420537Y-63180494D01*
X67479502Y-63070180D01*
X67515812Y-62950482D01*
X67528072Y-62826000D01*
X67525000Y-62261750D01*
X67366250Y-62103000D01*
X66167000Y-62103000D01*
X65913000Y-62103000D01*
X65893000Y-62103000D01*
X65893000Y-61849000D01*
X65913000Y-61849000D01*
X65913000Y-60649750D01*
X66167000Y-60649750D01*
X66167000Y-61849000D01*
X67366250Y-61849000D01*
X67525000Y-61690250D01*
X67528072Y-61126000D01*
X67515812Y-61001518D01*
X67479502Y-60881820D01*
X67420537Y-60771506D01*
X67341185Y-60674815D01*
X67244494Y-60595463D01*
X67134180Y-60536498D01*
X67014482Y-60500188D01*
X66890000Y-60487928D01*
X66325750Y-60491000D01*
X66167000Y-60649750D01*
X65913000Y-60649750D01*
X65754250Y-60491000D01*
X65190000Y-60487928D01*
X65065518Y-60500188D01*
X64945820Y-60536498D01*
X64835506Y-60595463D01*
X64738815Y-60674815D01*
X64659463Y-60771506D01*
X64600498Y-60881820D01*
X64578487Y-60954380D01*
X64446632Y-60822525D01*
X64203411Y-60660010D01*
X63933158Y-60548068D01*
X63646260Y-60491000D01*
X63353740Y-60491000D01*
X63066842Y-60548068D01*
X62796589Y-60660010D01*
X62553368Y-60822525D01*
X62346525Y-61029368D01*
X62230000Y-61203760D01*
X62113475Y-61029368D01*
X61906632Y-60822525D01*
X61663411Y-60660010D01*
X61393158Y-60548068D01*
X61106260Y-60491000D01*
X60813740Y-60491000D01*
X60526842Y-60548068D01*
X60256589Y-60660010D01*
X60013368Y-60822525D01*
X59806525Y-61029368D01*
X59690000Y-61203760D01*
X59573475Y-61029368D01*
X59366632Y-60822525D01*
X59123411Y-60660010D01*
X58853158Y-60548068D01*
X58566260Y-60491000D01*
X58273740Y-60491000D01*
X57986842Y-60548068D01*
X57716589Y-60660010D01*
X57473368Y-60822525D01*
X57266525Y-61029368D01*
X57104010Y-61272589D01*
X56992068Y-61542842D01*
X56935000Y-61829740D01*
X49745623Y-61829740D01*
X49748072Y-61380000D01*
X49735812Y-61255518D01*
X49699502Y-61135820D01*
X49640537Y-61025506D01*
X49561185Y-60928815D01*
X49464494Y-60849463D01*
X49354180Y-60790498D01*
X49281620Y-60768487D01*
X49413475Y-60636632D01*
X49575990Y-60393411D01*
X49687932Y-60123158D01*
X49745000Y-59836260D01*
X49745000Y-59543740D01*
X49687932Y-59256842D01*
X49575990Y-58986589D01*
X49413475Y-58743368D01*
X49206632Y-58536525D01*
X49032240Y-58420000D01*
X49206632Y-58303475D01*
X49413475Y-58096632D01*
X49575990Y-57853411D01*
X49687932Y-57583158D01*
X49745000Y-57296260D01*
X49745000Y-57003740D01*
X49687932Y-56716842D01*
X49575990Y-56446589D01*
X49413475Y-56203368D01*
X49206632Y-55996525D01*
X48963411Y-55834010D01*
X48693158Y-55722068D01*
X48406260Y-55665000D01*
X48113740Y-55665000D01*
X47826842Y-55722068D01*
X47556589Y-55834010D01*
X47313368Y-55996525D01*
X47106525Y-56203368D01*
X46944010Y-56446589D01*
X46832068Y-56716842D01*
X46775000Y-57003740D01*
X46775000Y-57296260D01*
X46832068Y-57583158D01*
X46944010Y-57853411D01*
X47106525Y-58096632D01*
X47313368Y-58303475D01*
X47487760Y-58420000D01*
X47313368Y-58536525D01*
X47106525Y-58743368D01*
X46944010Y-58986589D01*
X46832068Y-59256842D01*
X46775000Y-59543740D01*
X46775000Y-59836260D01*
X46832068Y-60123158D01*
X46944010Y-60393411D01*
X47106525Y-60636632D01*
X47238380Y-60768487D01*
X47165820Y-60790498D01*
X47055506Y-60849463D01*
X46958815Y-60928815D01*
X46879463Y-61025506D01*
X46820498Y-61135820D01*
X46784188Y-61255518D01*
X46771928Y-61380000D01*
X45847000Y-61380000D01*
X45847000Y-49383740D01*
X56935000Y-49383740D01*
X56935000Y-49676260D01*
X56992068Y-49963158D01*
X57104010Y-50233411D01*
X57266525Y-50476632D01*
X57473368Y-50683475D01*
X57716589Y-50845990D01*
X57986842Y-50957932D01*
X58273740Y-51015000D01*
X58566260Y-51015000D01*
X58853158Y-50957932D01*
X59123411Y-50845990D01*
X59366632Y-50683475D01*
X59573475Y-50476632D01*
X59690000Y-50302240D01*
X59806525Y-50476632D01*
X60013368Y-50683475D01*
X60256589Y-50845990D01*
X60526842Y-50957932D01*
X60813740Y-51015000D01*
X61106260Y-51015000D01*
X61393158Y-50957932D01*
X61663411Y-50845990D01*
X61906632Y-50683475D01*
X62113475Y-50476632D01*
X62230000Y-50302240D01*
X62346525Y-50476632D01*
X62553368Y-50683475D01*
X62665000Y-50758065D01*
X62665001Y-55921934D01*
X62553368Y-55996525D01*
X62346525Y-56203368D01*
X62230000Y-56377760D01*
X62113475Y-56203368D01*
X61906632Y-55996525D01*
X61663411Y-55834010D01*
X61393158Y-55722068D01*
X61106260Y-55665000D01*
X60813740Y-55665000D01*
X60526842Y-55722068D01*
X60256589Y-55834010D01*
X60013368Y-55996525D01*
X59806525Y-56203368D01*
X59690000Y-56377760D01*
X59573475Y-56203368D01*
X59366632Y-55996525D01*
X59123411Y-55834010D01*
X58853158Y-55722068D01*
X58566260Y-55665000D01*
X58273740Y-55665000D01*
X57986842Y-55722068D01*
X57716589Y-55834010D01*
X57473368Y-55996525D01*
X57266525Y-56203368D01*
X57104010Y-56446589D01*
X56992068Y-56716842D01*
X56935000Y-57003740D01*
X56935000Y-57296260D01*
X56992068Y-57583158D01*
X57104010Y-57853411D01*
X57266525Y-58096632D01*
X57473368Y-58303475D01*
X57716589Y-58465990D01*
X57986842Y-58577932D01*
X58273740Y-58635000D01*
X58566260Y-58635000D01*
X58853158Y-58577932D01*
X59123411Y-58465990D01*
X59366632Y-58303475D01*
X59573475Y-58096632D01*
X59690000Y-57922240D01*
X59806525Y-58096632D01*
X60013368Y-58303475D01*
X60256589Y-58465990D01*
X60526842Y-58577932D01*
X60813740Y-58635000D01*
X61106260Y-58635000D01*
X61393158Y-58577932D01*
X61663411Y-58465990D01*
X61906632Y-58303475D01*
X62113475Y-58096632D01*
X62230000Y-57922240D01*
X62346525Y-58096632D01*
X62553368Y-58303475D01*
X62796589Y-58465990D01*
X63066842Y-58577932D01*
X63353740Y-58635000D01*
X63646260Y-58635000D01*
X63933158Y-58577932D01*
X64203411Y-58465990D01*
X64446632Y-58303475D01*
X64578487Y-58171620D01*
X64600498Y-58244180D01*
X64659463Y-58354494D01*
X64738815Y-58451185D01*
X64835506Y-58530537D01*
X64945820Y-58589502D01*
X65065518Y-58625812D01*
X65190000Y-58638072D01*
X65754250Y-58635000D01*
X65913000Y-58476250D01*
X65913000Y-57277000D01*
X66167000Y-57277000D01*
X66167000Y-58476250D01*
X66325750Y-58635000D01*
X66890000Y-58638072D01*
X67014482Y-58625812D01*
X67134180Y-58589502D01*
X67244494Y-58530537D01*
X67341185Y-58451185D01*
X67420537Y-58354494D01*
X67479502Y-58244180D01*
X67515812Y-58124482D01*
X67528072Y-58000000D01*
X67525000Y-57435750D01*
X67366250Y-57277000D01*
X66167000Y-57277000D01*
X65913000Y-57277000D01*
X65893000Y-57277000D01*
X65893000Y-57023000D01*
X65913000Y-57023000D01*
X65913000Y-55823750D01*
X66167000Y-55823750D01*
X66167000Y-57023000D01*
X67366250Y-57023000D01*
X67525000Y-56864250D01*
X67528072Y-56300000D01*
X67515812Y-56175518D01*
X67479502Y-56055820D01*
X67420537Y-55945506D01*
X67341185Y-55848815D01*
X67244494Y-55769463D01*
X67134180Y-55710498D01*
X67014482Y-55674188D01*
X66890000Y-55661928D01*
X66325750Y-55665000D01*
X66167000Y-55823750D01*
X65913000Y-55823750D01*
X65754250Y-55665000D01*
X65190000Y-55661928D01*
X65065518Y-55674188D01*
X64945820Y-55710498D01*
X64835506Y-55769463D01*
X64738815Y-55848815D01*
X64659463Y-55945506D01*
X64600498Y-56055820D01*
X64578487Y-56128380D01*
X64446632Y-55996525D01*
X64335000Y-55921935D01*
X64335000Y-50758065D01*
X64446632Y-50683475D01*
X64578487Y-50551620D01*
X64600498Y-50624180D01*
X64659463Y-50734494D01*
X64738815Y-50831185D01*
X64835506Y-50910537D01*
X64945820Y-50969502D01*
X65065518Y-51005812D01*
X65190000Y-51018072D01*
X65754250Y-51015000D01*
X65913000Y-50856250D01*
X65913000Y-49657000D01*
X66167000Y-49657000D01*
X66167000Y-50856250D01*
X66325750Y-51015000D01*
X66890000Y-51018072D01*
X67014482Y-51005812D01*
X67134180Y-50969502D01*
X67244494Y-50910537D01*
X67341185Y-50831185D01*
X67420537Y-50734494D01*
X67479502Y-50624180D01*
X67515812Y-50504482D01*
X67528072Y-50380000D01*
X67525388Y-49886891D01*
X79838519Y-49886891D01*
X79935843Y-50161252D01*
X80084822Y-50411355D01*
X80279731Y-50627588D01*
X80513080Y-50801641D01*
X80775901Y-50926825D01*
X80923110Y-50971476D01*
X81153000Y-50850155D01*
X81153000Y-49657000D01*
X79959186Y-49657000D01*
X79838519Y-49886891D01*
X67525388Y-49886891D01*
X67525000Y-49815750D01*
X67366250Y-49657000D01*
X66167000Y-49657000D01*
X65913000Y-49657000D01*
X65893000Y-49657000D01*
X65893000Y-49403000D01*
X65913000Y-49403000D01*
X65913000Y-49383000D01*
X66167000Y-49383000D01*
X66167000Y-49403000D01*
X67366250Y-49403000D01*
X67525000Y-49244250D01*
X67525387Y-49173109D01*
X79838519Y-49173109D01*
X79959186Y-49403000D01*
X81153000Y-49403000D01*
X81153000Y-48209845D01*
X81407000Y-48209845D01*
X81407000Y-49403000D01*
X81427000Y-49403000D01*
X81427000Y-49657000D01*
X81407000Y-49657000D01*
X81407000Y-50850155D01*
X81636890Y-50971476D01*
X81784099Y-50926825D01*
X82046920Y-50801641D01*
X82280269Y-50627588D01*
X82475178Y-50411355D01*
X82544805Y-50294466D01*
X82666525Y-50476632D01*
X82873368Y-50683475D01*
X83116589Y-50845990D01*
X83386842Y-50957932D01*
X83673740Y-51015000D01*
X83966260Y-51015000D01*
X84253158Y-50957932D01*
X84523411Y-50845990D01*
X84766632Y-50683475D01*
X84973475Y-50476632D01*
X85090000Y-50302240D01*
X85206525Y-50476632D01*
X85413368Y-50683475D01*
X85656589Y-50845990D01*
X85926842Y-50957932D01*
X86213740Y-51015000D01*
X86506260Y-51015000D01*
X86793158Y-50957932D01*
X87063411Y-50845990D01*
X87306632Y-50683475D01*
X87513475Y-50476632D01*
X87630000Y-50302240D01*
X87746525Y-50476632D01*
X87953368Y-50683475D01*
X88196589Y-50845990D01*
X88466842Y-50957932D01*
X88753740Y-51015000D01*
X89046260Y-51015000D01*
X89333158Y-50957932D01*
X89603411Y-50845990D01*
X89846632Y-50683475D01*
X90053475Y-50476632D01*
X90170000Y-50302240D01*
X90286525Y-50476632D01*
X90493368Y-50683475D01*
X90736589Y-50845990D01*
X91006842Y-50957932D01*
X91293740Y-51015000D01*
X91586260Y-51015000D01*
X91873158Y-50957932D01*
X92143411Y-50845990D01*
X92386632Y-50683475D01*
X92593475Y-50476632D01*
X92710000Y-50302240D01*
X92826525Y-50476632D01*
X93033368Y-50683475D01*
X93276589Y-50845990D01*
X93546842Y-50957932D01*
X93833740Y-51015000D01*
X94126260Y-51015000D01*
X94413158Y-50957932D01*
X94683411Y-50845990D01*
X94926632Y-50683475D01*
X95133475Y-50476632D01*
X95255195Y-50294466D01*
X95324822Y-50411355D01*
X95519731Y-50627588D01*
X95753080Y-50801641D01*
X96015901Y-50926825D01*
X96163110Y-50971476D01*
X96393000Y-50850155D01*
X96393000Y-49657000D01*
X96373000Y-49657000D01*
X96373000Y-49403000D01*
X96393000Y-49403000D01*
X96393000Y-48209845D01*
X96647000Y-48209845D01*
X96647000Y-49403000D01*
X96667000Y-49403000D01*
X96667000Y-49657000D01*
X96647000Y-49657000D01*
X96647000Y-50850155D01*
X96876890Y-50971476D01*
X97024099Y-50926825D01*
X97286920Y-50801641D01*
X97520269Y-50627588D01*
X97715178Y-50411355D01*
X97784805Y-50294466D01*
X97906525Y-50476632D01*
X98113368Y-50683475D01*
X98356589Y-50845990D01*
X98626842Y-50957932D01*
X98913740Y-51015000D01*
X99206260Y-51015000D01*
X99493158Y-50957932D01*
X99763411Y-50845990D01*
X100006632Y-50683475D01*
X100213475Y-50476632D01*
X100330000Y-50302240D01*
X100446525Y-50476632D01*
X100653368Y-50683475D01*
X100896589Y-50845990D01*
X101166842Y-50957932D01*
X101453740Y-51015000D01*
X101746260Y-51015000D01*
X102033158Y-50957932D01*
X102303411Y-50845990D01*
X102546632Y-50683475D01*
X102753475Y-50476632D01*
X102870000Y-50302240D01*
X102986525Y-50476632D01*
X103193368Y-50683475D01*
X103436589Y-50845990D01*
X103706842Y-50957932D01*
X103993740Y-51015000D01*
X104286260Y-51015000D01*
X104573158Y-50957932D01*
X104843411Y-50845990D01*
X105086632Y-50683475D01*
X105293475Y-50476632D01*
X105410000Y-50302240D01*
X105526525Y-50476632D01*
X105733368Y-50683475D01*
X105976589Y-50845990D01*
X106246842Y-50957932D01*
X106533740Y-51015000D01*
X106826260Y-51015000D01*
X107113158Y-50957932D01*
X107383411Y-50845990D01*
X107626632Y-50683475D01*
X107833475Y-50476632D01*
X107950000Y-50302240D01*
X108066525Y-50476632D01*
X108273368Y-50683475D01*
X108516589Y-50845990D01*
X108786842Y-50957932D01*
X109073740Y-51015000D01*
X109366260Y-51015000D01*
X109653158Y-50957932D01*
X109923411Y-50845990D01*
X110166632Y-50683475D01*
X110373475Y-50476632D01*
X110490000Y-50302240D01*
X110606525Y-50476632D01*
X110813368Y-50683475D01*
X111056589Y-50845990D01*
X111326842Y-50957932D01*
X111613740Y-51015000D01*
X111906260Y-51015000D01*
X112193158Y-50957932D01*
X112463411Y-50845990D01*
X112706632Y-50683475D01*
X112913475Y-50476632D01*
X113030000Y-50302240D01*
X113146525Y-50476632D01*
X113353368Y-50683475D01*
X113596589Y-50845990D01*
X113866842Y-50957932D01*
X114153740Y-51015000D01*
X114446260Y-51015000D01*
X114733158Y-50957932D01*
X115003411Y-50845990D01*
X115246632Y-50683475D01*
X115453475Y-50476632D01*
X115570000Y-50302240D01*
X115686525Y-50476632D01*
X115893368Y-50683475D01*
X116136589Y-50845990D01*
X116406842Y-50957932D01*
X116693740Y-51015000D01*
X116986260Y-51015000D01*
X117273158Y-50957932D01*
X117543411Y-50845990D01*
X117786632Y-50683475D01*
X117993475Y-50476632D01*
X118110000Y-50302240D01*
X118226525Y-50476632D01*
X118433368Y-50683475D01*
X118676589Y-50845990D01*
X118946842Y-50957932D01*
X119233740Y-51015000D01*
X119526260Y-51015000D01*
X119813158Y-50957932D01*
X120083411Y-50845990D01*
X120326632Y-50683475D01*
X120533475Y-50476632D01*
X120650000Y-50302240D01*
X120766525Y-50476632D01*
X120973368Y-50683475D01*
X121216589Y-50845990D01*
X121486842Y-50957932D01*
X121773740Y-51015000D01*
X122066260Y-51015000D01*
X122353158Y-50957932D01*
X122623411Y-50845990D01*
X122866632Y-50683475D01*
X123073475Y-50476632D01*
X123190000Y-50302240D01*
X123306525Y-50476632D01*
X123513368Y-50683475D01*
X123756589Y-50845990D01*
X124026842Y-50957932D01*
X124313740Y-51015000D01*
X124606260Y-51015000D01*
X124893158Y-50957932D01*
X125163411Y-50845990D01*
X125406632Y-50683475D01*
X125538487Y-50551620D01*
X125560498Y-50624180D01*
X125619463Y-50734494D01*
X125698815Y-50831185D01*
X125795506Y-50910537D01*
X125905820Y-50969502D01*
X126025518Y-51005812D01*
X126150000Y-51018072D01*
X127850000Y-51018072D01*
X127974482Y-51005812D01*
X128094180Y-50969502D01*
X128204494Y-50910537D01*
X128301185Y-50831185D01*
X128380537Y-50734494D01*
X128439502Y-50624180D01*
X128475812Y-50504482D01*
X128488072Y-50380000D01*
X128488072Y-48680000D01*
X128475812Y-48555518D01*
X128439502Y-48435820D01*
X128380537Y-48325506D01*
X128301185Y-48228815D01*
X128204494Y-48149463D01*
X128094180Y-48090498D01*
X127974482Y-48054188D01*
X127850000Y-48041928D01*
X126150000Y-48041928D01*
X126025518Y-48054188D01*
X125905820Y-48090498D01*
X125795506Y-48149463D01*
X125698815Y-48228815D01*
X125619463Y-48325506D01*
X125560498Y-48435820D01*
X125538487Y-48508380D01*
X125406632Y-48376525D01*
X125163411Y-48214010D01*
X124893158Y-48102068D01*
X124606260Y-48045000D01*
X124313740Y-48045000D01*
X124026842Y-48102068D01*
X123756589Y-48214010D01*
X123513368Y-48376525D01*
X123306525Y-48583368D01*
X123190000Y-48757760D01*
X123073475Y-48583368D01*
X122866632Y-48376525D01*
X122623411Y-48214010D01*
X122353158Y-48102068D01*
X122066260Y-48045000D01*
X121773740Y-48045000D01*
X121486842Y-48102068D01*
X121216589Y-48214010D01*
X120973368Y-48376525D01*
X120766525Y-48583368D01*
X120650000Y-48757760D01*
X120533475Y-48583368D01*
X120326632Y-48376525D01*
X120083411Y-48214010D01*
X119813158Y-48102068D01*
X119526260Y-48045000D01*
X119233740Y-48045000D01*
X118946842Y-48102068D01*
X118676589Y-48214010D01*
X118433368Y-48376525D01*
X118226525Y-48583368D01*
X118110000Y-48757760D01*
X117993475Y-48583368D01*
X117786632Y-48376525D01*
X117543411Y-48214010D01*
X117273158Y-48102068D01*
X116986260Y-48045000D01*
X116693740Y-48045000D01*
X116406842Y-48102068D01*
X116136589Y-48214010D01*
X115893368Y-48376525D01*
X115686525Y-48583368D01*
X115570000Y-48757760D01*
X115453475Y-48583368D01*
X115246632Y-48376525D01*
X115003411Y-48214010D01*
X114733158Y-48102068D01*
X114446260Y-48045000D01*
X114153740Y-48045000D01*
X113866842Y-48102068D01*
X113596589Y-48214010D01*
X113353368Y-48376525D01*
X113146525Y-48583368D01*
X113030000Y-48757760D01*
X112913475Y-48583368D01*
X112706632Y-48376525D01*
X112463411Y-48214010D01*
X112193158Y-48102068D01*
X111906260Y-48045000D01*
X111613740Y-48045000D01*
X111326842Y-48102068D01*
X111056589Y-48214010D01*
X110813368Y-48376525D01*
X110606525Y-48583368D01*
X110490000Y-48757760D01*
X110373475Y-48583368D01*
X110166632Y-48376525D01*
X109923411Y-48214010D01*
X109653158Y-48102068D01*
X109366260Y-48045000D01*
X109073740Y-48045000D01*
X108786842Y-48102068D01*
X108516589Y-48214010D01*
X108273368Y-48376525D01*
X108066525Y-48583368D01*
X107950000Y-48757760D01*
X107833475Y-48583368D01*
X107626632Y-48376525D01*
X107383411Y-48214010D01*
X107113158Y-48102068D01*
X106826260Y-48045000D01*
X106533740Y-48045000D01*
X106246842Y-48102068D01*
X105976589Y-48214010D01*
X105733368Y-48376525D01*
X105526525Y-48583368D01*
X105410000Y-48757760D01*
X105293475Y-48583368D01*
X105086632Y-48376525D01*
X104843411Y-48214010D01*
X104573158Y-48102068D01*
X104286260Y-48045000D01*
X103993740Y-48045000D01*
X103706842Y-48102068D01*
X103436589Y-48214010D01*
X103193368Y-48376525D01*
X102986525Y-48583368D01*
X102870000Y-48757760D01*
X102753475Y-48583368D01*
X102546632Y-48376525D01*
X102303411Y-48214010D01*
X102033158Y-48102068D01*
X101746260Y-48045000D01*
X101453740Y-48045000D01*
X101166842Y-48102068D01*
X100896589Y-48214010D01*
X100653368Y-48376525D01*
X100446525Y-48583368D01*
X100330000Y-48757760D01*
X100213475Y-48583368D01*
X100006632Y-48376525D01*
X99763411Y-48214010D01*
X99493158Y-48102068D01*
X99206260Y-48045000D01*
X98913740Y-48045000D01*
X98626842Y-48102068D01*
X98356589Y-48214010D01*
X98113368Y-48376525D01*
X97906525Y-48583368D01*
X97784805Y-48765534D01*
X97715178Y-48648645D01*
X97520269Y-48432412D01*
X97286920Y-48258359D01*
X97024099Y-48133175D01*
X96876890Y-48088524D01*
X96647000Y-48209845D01*
X96393000Y-48209845D01*
X96163110Y-48088524D01*
X96015901Y-48133175D01*
X95753080Y-48258359D01*
X95519731Y-48432412D01*
X95324822Y-48648645D01*
X95255195Y-48765534D01*
X95133475Y-48583368D01*
X94926632Y-48376525D01*
X94683411Y-48214010D01*
X94413158Y-48102068D01*
X94126260Y-48045000D01*
X93833740Y-48045000D01*
X93546842Y-48102068D01*
X93276589Y-48214010D01*
X93033368Y-48376525D01*
X92826525Y-48583368D01*
X92710000Y-48757760D01*
X92593475Y-48583368D01*
X92386632Y-48376525D01*
X92143411Y-48214010D01*
X91873158Y-48102068D01*
X91586260Y-48045000D01*
X91293740Y-48045000D01*
X91006842Y-48102068D01*
X90736589Y-48214010D01*
X90493368Y-48376525D01*
X90286525Y-48583368D01*
X90170000Y-48757760D01*
X90053475Y-48583368D01*
X89846632Y-48376525D01*
X89603411Y-48214010D01*
X89333158Y-48102068D01*
X89046260Y-48045000D01*
X88753740Y-48045000D01*
X88466842Y-48102068D01*
X88196589Y-48214010D01*
X87953368Y-48376525D01*
X87746525Y-48583368D01*
X87630000Y-48757760D01*
X87513475Y-48583368D01*
X87306632Y-48376525D01*
X87063411Y-48214010D01*
X86793158Y-48102068D01*
X86506260Y-48045000D01*
X86213740Y-48045000D01*
X85926842Y-48102068D01*
X85656589Y-48214010D01*
X85413368Y-48376525D01*
X85206525Y-48583368D01*
X85090000Y-48757760D01*
X84973475Y-48583368D01*
X84766632Y-48376525D01*
X84523411Y-48214010D01*
X84253158Y-48102068D01*
X83966260Y-48045000D01*
X83673740Y-48045000D01*
X83386842Y-48102068D01*
X83116589Y-48214010D01*
X82873368Y-48376525D01*
X82666525Y-48583368D01*
X82544805Y-48765534D01*
X82475178Y-48648645D01*
X82280269Y-48432412D01*
X82046920Y-48258359D01*
X81784099Y-48133175D01*
X81636890Y-48088524D01*
X81407000Y-48209845D01*
X81153000Y-48209845D01*
X80923110Y-48088524D01*
X80775901Y-48133175D01*
X80513080Y-48258359D01*
X80279731Y-48432412D01*
X80084822Y-48648645D01*
X79935843Y-48898748D01*
X79838519Y-49173109D01*
X67525387Y-49173109D01*
X67528072Y-48680000D01*
X67515812Y-48555518D01*
X67479502Y-48435820D01*
X67420537Y-48325506D01*
X67341185Y-48228815D01*
X67244494Y-48149463D01*
X67134180Y-48090498D01*
X67014482Y-48054188D01*
X66890000Y-48041928D01*
X66325750Y-48045000D01*
X66167002Y-48203748D01*
X66167002Y-48045000D01*
X66165867Y-48045000D01*
X72443427Y-41767441D01*
X72475291Y-41741291D01*
X72579636Y-41614146D01*
X72657172Y-41469087D01*
X72704918Y-41311689D01*
X72717000Y-41189019D01*
X72721040Y-41148001D01*
X72717000Y-41106982D01*
X72717000Y-35518065D01*
X72828632Y-35443475D01*
X73035475Y-35236632D01*
X73152000Y-35062240D01*
X73268525Y-35236632D01*
X73475368Y-35443475D01*
X73718589Y-35605990D01*
X73988842Y-35717932D01*
X74275740Y-35775000D01*
X74568260Y-35775000D01*
X74855158Y-35717932D01*
X75125411Y-35605990D01*
X75368632Y-35443475D01*
X75500487Y-35311620D01*
X75522498Y-35384180D01*
X75581463Y-35494494D01*
X75660815Y-35591185D01*
X75757506Y-35670537D01*
X75867820Y-35729502D01*
X75987518Y-35765812D01*
X76112000Y-35778072D01*
X76676250Y-35775000D01*
X76835000Y-35616250D01*
X76835000Y-34417000D01*
X77089000Y-34417000D01*
X77089000Y-35616250D01*
X77247750Y-35775000D01*
X77812000Y-35778072D01*
X77936482Y-35765812D01*
X78056180Y-35729502D01*
X78166494Y-35670537D01*
X78263185Y-35591185D01*
X78342537Y-35494494D01*
X78401502Y-35384180D01*
X78437812Y-35264482D01*
X78450072Y-35140000D01*
X78447000Y-34575750D01*
X78288250Y-34417000D01*
X77089000Y-34417000D01*
X76835000Y-34417000D01*
X76815000Y-34417000D01*
X76815000Y-34163000D01*
X76835000Y-34163000D01*
X76835000Y-32963750D01*
X77089000Y-32963750D01*
X77089000Y-34163000D01*
X78288250Y-34163000D01*
X78307510Y-34143740D01*
X84367000Y-34143740D01*
X84367000Y-34436260D01*
X84424068Y-34723158D01*
X84536010Y-34993411D01*
X84698525Y-35236632D01*
X84905368Y-35443475D01*
X85148589Y-35605990D01*
X85418842Y-35717932D01*
X85705740Y-35775000D01*
X85998260Y-35775000D01*
X86285158Y-35717932D01*
X86555411Y-35605990D01*
X86798632Y-35443475D01*
X87005475Y-35236632D01*
X87122000Y-35062240D01*
X87238525Y-35236632D01*
X87445368Y-35443475D01*
X87688589Y-35605990D01*
X87958842Y-35717932D01*
X88245740Y-35775000D01*
X88538260Y-35775000D01*
X88825158Y-35717932D01*
X89095411Y-35605990D01*
X89338632Y-35443475D01*
X89470487Y-35311620D01*
X89492498Y-35384180D01*
X89551463Y-35494494D01*
X89630815Y-35591185D01*
X89727506Y-35670537D01*
X89837820Y-35729502D01*
X89957518Y-35765812D01*
X90082000Y-35778072D01*
X90646250Y-35775000D01*
X90805000Y-35616250D01*
X90805000Y-34417000D01*
X91059000Y-34417000D01*
X91059000Y-35616250D01*
X91217750Y-35775000D01*
X91782000Y-35778072D01*
X91906482Y-35765812D01*
X92026180Y-35729502D01*
X92136494Y-35670537D01*
X92233185Y-35591185D01*
X92312537Y-35494494D01*
X92371502Y-35384180D01*
X92407812Y-35264482D01*
X92420072Y-35140000D01*
X92417000Y-34575750D01*
X92258250Y-34417000D01*
X91059000Y-34417000D01*
X90805000Y-34417000D01*
X90785000Y-34417000D01*
X90785000Y-34163000D01*
X90805000Y-34163000D01*
X90805000Y-32963750D01*
X91059000Y-32963750D01*
X91059000Y-34163000D01*
X92258250Y-34163000D01*
X92277510Y-34143740D01*
X98337000Y-34143740D01*
X98337000Y-34436260D01*
X98394068Y-34723158D01*
X98506010Y-34993411D01*
X98668525Y-35236632D01*
X98875368Y-35443475D01*
X99118589Y-35605990D01*
X99388842Y-35717932D01*
X99675740Y-35775000D01*
X99968260Y-35775000D01*
X100255158Y-35717932D01*
X100525411Y-35605990D01*
X100768632Y-35443475D01*
X100975475Y-35236632D01*
X101092000Y-35062240D01*
X101208525Y-35236632D01*
X101415368Y-35443475D01*
X101658589Y-35605990D01*
X101928842Y-35717932D01*
X102215740Y-35775000D01*
X102508260Y-35775000D01*
X102795158Y-35717932D01*
X103065411Y-35605990D01*
X103308632Y-35443475D01*
X103440487Y-35311620D01*
X103462498Y-35384180D01*
X103521463Y-35494494D01*
X103600815Y-35591185D01*
X103697506Y-35670537D01*
X103807820Y-35729502D01*
X103927518Y-35765812D01*
X104052000Y-35778072D01*
X104616250Y-35775000D01*
X104775000Y-35616250D01*
X104775000Y-34417000D01*
X105029000Y-34417000D01*
X105029000Y-35616250D01*
X105187750Y-35775000D01*
X105752000Y-35778072D01*
X105876482Y-35765812D01*
X105996180Y-35729502D01*
X106106494Y-35670537D01*
X106203185Y-35591185D01*
X106282537Y-35494494D01*
X106341502Y-35384180D01*
X106377812Y-35264482D01*
X106390072Y-35140000D01*
X106387000Y-34575750D01*
X106228250Y-34417000D01*
X105029000Y-34417000D01*
X104775000Y-34417000D01*
X104755000Y-34417000D01*
X104755000Y-34163000D01*
X104775000Y-34163000D01*
X104775000Y-32963750D01*
X105029000Y-32963750D01*
X105029000Y-34163000D01*
X106228250Y-34163000D01*
X106247510Y-34143740D01*
X111037000Y-34143740D01*
X111037000Y-34436260D01*
X111094068Y-34723158D01*
X111206010Y-34993411D01*
X111368525Y-35236632D01*
X111575368Y-35443475D01*
X111818589Y-35605990D01*
X112088842Y-35717932D01*
X112375740Y-35775000D01*
X112668260Y-35775000D01*
X112955158Y-35717932D01*
X113225411Y-35605990D01*
X113468632Y-35443475D01*
X113675475Y-35236632D01*
X113792000Y-35062240D01*
X113908525Y-35236632D01*
X114115368Y-35443475D01*
X114358589Y-35605990D01*
X114628842Y-35717932D01*
X114915740Y-35775000D01*
X115208260Y-35775000D01*
X115495158Y-35717932D01*
X115765411Y-35605990D01*
X116008632Y-35443475D01*
X116140487Y-35311620D01*
X116162498Y-35384180D01*
X116221463Y-35494494D01*
X116300815Y-35591185D01*
X116397506Y-35670537D01*
X116507820Y-35729502D01*
X116627518Y-35765812D01*
X116752000Y-35778072D01*
X117316250Y-35775000D01*
X117475000Y-35616250D01*
X117475000Y-34417000D01*
X117729000Y-34417000D01*
X117729000Y-35616250D01*
X117887750Y-35775000D01*
X118452000Y-35778072D01*
X118576482Y-35765812D01*
X118696180Y-35729502D01*
X118806494Y-35670537D01*
X118903185Y-35591185D01*
X118982537Y-35494494D01*
X119041502Y-35384180D01*
X119077812Y-35264482D01*
X119090072Y-35140000D01*
X119087000Y-34575750D01*
X118928250Y-34417000D01*
X117729000Y-34417000D01*
X117475000Y-34417000D01*
X117455000Y-34417000D01*
X117455000Y-34163000D01*
X117475000Y-34163000D01*
X117475000Y-32963750D01*
X117729000Y-32963750D01*
X117729000Y-34163000D01*
X118928250Y-34163000D01*
X119087000Y-34004250D01*
X119090072Y-33440000D01*
X119077812Y-33315518D01*
X119041502Y-33195820D01*
X118982537Y-33085506D01*
X118903185Y-32988815D01*
X118806494Y-32909463D01*
X118696180Y-32850498D01*
X118576482Y-32814188D01*
X118452000Y-32801928D01*
X117887750Y-32805000D01*
X117729000Y-32963750D01*
X117475000Y-32963750D01*
X117316250Y-32805000D01*
X116752000Y-32801928D01*
X116627518Y-32814188D01*
X116507820Y-32850498D01*
X116397506Y-32909463D01*
X116300815Y-32988815D01*
X116221463Y-33085506D01*
X116162498Y-33195820D01*
X116140487Y-33268380D01*
X116008632Y-33136525D01*
X115765411Y-32974010D01*
X115495158Y-32862068D01*
X115208260Y-32805000D01*
X114915740Y-32805000D01*
X114628842Y-32862068D01*
X114358589Y-32974010D01*
X114115368Y-33136525D01*
X113908525Y-33343368D01*
X113792000Y-33517760D01*
X113675475Y-33343368D01*
X113468632Y-33136525D01*
X113225411Y-32974010D01*
X112955158Y-32862068D01*
X112668260Y-32805000D01*
X112375740Y-32805000D01*
X112088842Y-32862068D01*
X111818589Y-32974010D01*
X111575368Y-33136525D01*
X111368525Y-33343368D01*
X111206010Y-33586589D01*
X111094068Y-33856842D01*
X111037000Y-34143740D01*
X106247510Y-34143740D01*
X106387000Y-34004250D01*
X106390072Y-33440000D01*
X106377812Y-33315518D01*
X106341502Y-33195820D01*
X106282537Y-33085506D01*
X106203185Y-32988815D01*
X106106494Y-32909463D01*
X105996180Y-32850498D01*
X105876482Y-32814188D01*
X105752000Y-32801928D01*
X105187750Y-32805000D01*
X105029000Y-32963750D01*
X104775000Y-32963750D01*
X104616250Y-32805000D01*
X104052000Y-32801928D01*
X103927518Y-32814188D01*
X103807820Y-32850498D01*
X103697506Y-32909463D01*
X103600815Y-32988815D01*
X103521463Y-33085506D01*
X103462498Y-33195820D01*
X103440487Y-33268380D01*
X103308632Y-33136525D01*
X103065411Y-32974010D01*
X102795158Y-32862068D01*
X102508260Y-32805000D01*
X102215740Y-32805000D01*
X101928842Y-32862068D01*
X101658589Y-32974010D01*
X101415368Y-33136525D01*
X101208525Y-33343368D01*
X101092000Y-33517760D01*
X100975475Y-33343368D01*
X100768632Y-33136525D01*
X100525411Y-32974010D01*
X100255158Y-32862068D01*
X99968260Y-32805000D01*
X99675740Y-32805000D01*
X99388842Y-32862068D01*
X99118589Y-32974010D01*
X98875368Y-33136525D01*
X98668525Y-33343368D01*
X98506010Y-33586589D01*
X98394068Y-33856842D01*
X98337000Y-34143740D01*
X92277510Y-34143740D01*
X92417000Y-34004250D01*
X92420072Y-33440000D01*
X92407812Y-33315518D01*
X92371502Y-33195820D01*
X92312537Y-33085506D01*
X92233185Y-32988815D01*
X92136494Y-32909463D01*
X92026180Y-32850498D01*
X91906482Y-32814188D01*
X91782000Y-32801928D01*
X91217750Y-32805000D01*
X91059000Y-32963750D01*
X90805000Y-32963750D01*
X90646250Y-32805000D01*
X90082000Y-32801928D01*
X89957518Y-32814188D01*
X89837820Y-32850498D01*
X89727506Y-32909463D01*
X89630815Y-32988815D01*
X89551463Y-33085506D01*
X89492498Y-33195820D01*
X89470487Y-33268380D01*
X89338632Y-33136525D01*
X89095411Y-32974010D01*
X88825158Y-32862068D01*
X88538260Y-32805000D01*
X88245740Y-32805000D01*
X87958842Y-32862068D01*
X87688589Y-32974010D01*
X87445368Y-33136525D01*
X87238525Y-33343368D01*
X87122000Y-33517760D01*
X87005475Y-33343368D01*
X86798632Y-33136525D01*
X86555411Y-32974010D01*
X86285158Y-32862068D01*
X85998260Y-32805000D01*
X85705740Y-32805000D01*
X85418842Y-32862068D01*
X85148589Y-32974010D01*
X84905368Y-33136525D01*
X84698525Y-33343368D01*
X84536010Y-33586589D01*
X84424068Y-33856842D01*
X84367000Y-34143740D01*
X78307510Y-34143740D01*
X78447000Y-34004250D01*
X78450072Y-33440000D01*
X78437812Y-33315518D01*
X78401502Y-33195820D01*
X78342537Y-33085506D01*
X78263185Y-32988815D01*
X78166494Y-32909463D01*
X78056180Y-32850498D01*
X77936482Y-32814188D01*
X77812000Y-32801928D01*
X77247750Y-32805000D01*
X77089000Y-32963750D01*
X76835000Y-32963750D01*
X76676250Y-32805000D01*
X76112000Y-32801928D01*
X75987518Y-32814188D01*
X75867820Y-32850498D01*
X75757506Y-32909463D01*
X75660815Y-32988815D01*
X75581463Y-33085506D01*
X75522498Y-33195820D01*
X75500487Y-33268380D01*
X75368632Y-33136525D01*
X75125411Y-32974010D01*
X74855158Y-32862068D01*
X74568260Y-32805000D01*
X74275740Y-32805000D01*
X73988842Y-32862068D01*
X73718589Y-32974010D01*
X73475368Y-33136525D01*
X73268525Y-33343368D01*
X73152000Y-33517760D01*
X73035475Y-33343368D01*
X72828632Y-33136525D01*
X72585411Y-32974010D01*
X72315158Y-32862068D01*
X72028260Y-32805000D01*
X71735740Y-32805000D01*
X71448842Y-32862068D01*
X71178589Y-32974010D01*
X70935368Y-33136525D01*
X70728525Y-33343368D01*
X70566010Y-33586589D01*
X70454068Y-33856842D01*
X70397000Y-34143740D01*
X70397000Y-34436260D01*
X70454068Y-34723158D01*
X70566010Y-34993411D01*
X70728525Y-35236632D01*
X70935368Y-35443475D01*
X71047000Y-35518065D01*
X71047001Y-40802131D01*
X63777940Y-48071193D01*
X63646260Y-48045000D01*
X63353740Y-48045000D01*
X63066842Y-48102068D01*
X62796589Y-48214010D01*
X62553368Y-48376525D01*
X62346525Y-48583368D01*
X62230000Y-48757760D01*
X62113475Y-48583368D01*
X61906632Y-48376525D01*
X61663411Y-48214010D01*
X61393158Y-48102068D01*
X61106260Y-48045000D01*
X60813740Y-48045000D01*
X60526842Y-48102068D01*
X60256589Y-48214010D01*
X60013368Y-48376525D01*
X59806525Y-48583368D01*
X59690000Y-48757760D01*
X59573475Y-48583368D01*
X59366632Y-48376525D01*
X59123411Y-48214010D01*
X58853158Y-48102068D01*
X58566260Y-48045000D01*
X58273740Y-48045000D01*
X57986842Y-48102068D01*
X57716589Y-48214010D01*
X57473368Y-48376525D01*
X57266525Y-48583368D01*
X57104010Y-48826589D01*
X56992068Y-49096842D01*
X56935000Y-49383740D01*
X45847000Y-49383740D01*
X45847000Y-40493740D01*
X62015000Y-40493740D01*
X62015000Y-40786260D01*
X62072068Y-41073158D01*
X62184010Y-41343411D01*
X62346525Y-41586632D01*
X62553368Y-41793475D01*
X62796589Y-41955990D01*
X63066842Y-42067932D01*
X63353740Y-42125000D01*
X63646260Y-42125000D01*
X63933158Y-42067932D01*
X64203411Y-41955990D01*
X64446632Y-41793475D01*
X64578487Y-41661620D01*
X64600498Y-41734180D01*
X64659463Y-41844494D01*
X64738815Y-41941185D01*
X64835506Y-42020537D01*
X64945820Y-42079502D01*
X65065518Y-42115812D01*
X65190000Y-42128072D01*
X66890000Y-42128072D01*
X67014482Y-42115812D01*
X67134180Y-42079502D01*
X67244494Y-42020537D01*
X67341185Y-41941185D01*
X67420537Y-41844494D01*
X67479502Y-41734180D01*
X67515812Y-41614482D01*
X67528072Y-41490000D01*
X67528072Y-39790000D01*
X67515812Y-39665518D01*
X67479502Y-39545820D01*
X67420537Y-39435506D01*
X67341185Y-39338815D01*
X67244494Y-39259463D01*
X67134180Y-39200498D01*
X67014482Y-39164188D01*
X66890000Y-39151928D01*
X65190000Y-39151928D01*
X65065518Y-39164188D01*
X64945820Y-39200498D01*
X64835506Y-39259463D01*
X64738815Y-39338815D01*
X64659463Y-39435506D01*
X64600498Y-39545820D01*
X64578487Y-39618380D01*
X64446632Y-39486525D01*
X64203411Y-39324010D01*
X63933158Y-39212068D01*
X63646260Y-39155000D01*
X63353740Y-39155000D01*
X63066842Y-39212068D01*
X62796589Y-39324010D01*
X62553368Y-39486525D01*
X62346525Y-39693368D01*
X62184010Y-39936589D01*
X62072068Y-40206842D01*
X62015000Y-40493740D01*
X45847000Y-40493740D01*
X45847000Y-31877000D01*
X129413000Y-31877000D01*
X129413000Y-92583000D01*
%TA.AperFunction,Conductor*%
D17*
G36*
X129413000Y-92583000D02*
G01*
X45847000Y-92583000D01*
X45847000Y-84670000D01*
X78013928Y-84670000D01*
X78026188Y-84794482D01*
X78062498Y-84914180D01*
X78121463Y-85024494D01*
X78200815Y-85121185D01*
X78297506Y-85200537D01*
X78407820Y-85259502D01*
X78527518Y-85295812D01*
X78652000Y-85308072D01*
X79216250Y-85305000D01*
X79375000Y-85146250D01*
X79375000Y-83947000D01*
X78175750Y-83947000D01*
X78017000Y-84105750D01*
X78013928Y-84670000D01*
X45847000Y-84670000D01*
X45847000Y-82970000D01*
X78013928Y-82970000D01*
X78017000Y-83534250D01*
X78175750Y-83693000D01*
X79375000Y-83693000D01*
X79375000Y-82493750D01*
X79629000Y-82493750D01*
X79629000Y-83693000D01*
X79649000Y-83693000D01*
X79649000Y-83947000D01*
X79629000Y-83947000D01*
X79629000Y-85146250D01*
X79787750Y-85305000D01*
X80352000Y-85308072D01*
X80476482Y-85295812D01*
X80596180Y-85259502D01*
X80706494Y-85200537D01*
X80803185Y-85121185D01*
X80882537Y-85024494D01*
X80941502Y-84914180D01*
X80963513Y-84841620D01*
X81095368Y-84973475D01*
X81338589Y-85135990D01*
X81608842Y-85247932D01*
X81895740Y-85305000D01*
X82188260Y-85305000D01*
X82475158Y-85247932D01*
X82745411Y-85135990D01*
X82988632Y-84973475D01*
X83195475Y-84766632D01*
X83312000Y-84592240D01*
X83428525Y-84766632D01*
X83635368Y-84973475D01*
X83878589Y-85135990D01*
X84148842Y-85247932D01*
X84435740Y-85305000D01*
X84728260Y-85305000D01*
X85015158Y-85247932D01*
X85285411Y-85135990D01*
X85528632Y-84973475D01*
X85735475Y-84766632D01*
X85800042Y-84670000D01*
X105191928Y-84670000D01*
X105204188Y-84794482D01*
X105240498Y-84914180D01*
X105299463Y-85024494D01*
X105378815Y-85121185D01*
X105475506Y-85200537D01*
X105585820Y-85259502D01*
X105705518Y-85295812D01*
X105830000Y-85308072D01*
X106394250Y-85305000D01*
X106553000Y-85146250D01*
X106553000Y-83947000D01*
X105353750Y-83947000D01*
X105195000Y-84105750D01*
X105191928Y-84670000D01*
X85800042Y-84670000D01*
X85897990Y-84523411D01*
X86009932Y-84253158D01*
X86067000Y-83966260D01*
X86067000Y-83673740D01*
X86009932Y-83386842D01*
X85897990Y-83116589D01*
X85800043Y-82970000D01*
X105191928Y-82970000D01*
X105195000Y-83534250D01*
X105353750Y-83693000D01*
X106553000Y-83693000D01*
X106553000Y-82493750D01*
X106807000Y-82493750D01*
X106807000Y-83693000D01*
X106827000Y-83693000D01*
X106827000Y-83947000D01*
X106807000Y-83947000D01*
X106807000Y-85146250D01*
X106965750Y-85305000D01*
X107530000Y-85308072D01*
X107654482Y-85295812D01*
X107774180Y-85259502D01*
X107884494Y-85200537D01*
X107981185Y-85121185D01*
X108060537Y-85024494D01*
X108119502Y-84914180D01*
X108141513Y-84841620D01*
X108273368Y-84973475D01*
X108516589Y-85135990D01*
X108786842Y-85247932D01*
X109073740Y-85305000D01*
X109366260Y-85305000D01*
X109653158Y-85247932D01*
X109923411Y-85135990D01*
X110166632Y-84973475D01*
X110373475Y-84766632D01*
X110490000Y-84592240D01*
X110606525Y-84766632D01*
X110813368Y-84973475D01*
X111056589Y-85135990D01*
X111326842Y-85247932D01*
X111613740Y-85305000D01*
X111906260Y-85305000D01*
X112193158Y-85247932D01*
X112463411Y-85135990D01*
X112706632Y-84973475D01*
X112913475Y-84766632D01*
X113075990Y-84523411D01*
X113187932Y-84253158D01*
X113245000Y-83966260D01*
X113245000Y-83673740D01*
X113187932Y-83386842D01*
X113075990Y-83116589D01*
X112913475Y-82873368D01*
X112706632Y-82666525D01*
X112463411Y-82504010D01*
X112193158Y-82392068D01*
X111906260Y-82335000D01*
X111613740Y-82335000D01*
X111326842Y-82392068D01*
X111056589Y-82504010D01*
X110813368Y-82666525D01*
X110606525Y-82873368D01*
X110490000Y-83047760D01*
X110373475Y-82873368D01*
X110166632Y-82666525D01*
X109923411Y-82504010D01*
X109653158Y-82392068D01*
X109366260Y-82335000D01*
X109073740Y-82335000D01*
X108786842Y-82392068D01*
X108516589Y-82504010D01*
X108273368Y-82666525D01*
X108141513Y-82798380D01*
X108119502Y-82725820D01*
X108060537Y-82615506D01*
X107981185Y-82518815D01*
X107884494Y-82439463D01*
X107774180Y-82380498D01*
X107654482Y-82344188D01*
X107530000Y-82331928D01*
X106965750Y-82335000D01*
X106807000Y-82493750D01*
X106553000Y-82493750D01*
X106394250Y-82335000D01*
X105830000Y-82331928D01*
X105705518Y-82344188D01*
X105585820Y-82380498D01*
X105475506Y-82439463D01*
X105378815Y-82518815D01*
X105299463Y-82615506D01*
X105240498Y-82725820D01*
X105204188Y-82845518D01*
X105191928Y-82970000D01*
X85800043Y-82970000D01*
X85735475Y-82873368D01*
X85528632Y-82666525D01*
X85285411Y-82504010D01*
X85015158Y-82392068D01*
X84728260Y-82335000D01*
X84435740Y-82335000D01*
X84148842Y-82392068D01*
X83878589Y-82504010D01*
X83635368Y-82666525D01*
X83428525Y-82873368D01*
X83312000Y-83047760D01*
X83195475Y-82873368D01*
X82988632Y-82666525D01*
X82745411Y-82504010D01*
X82475158Y-82392068D01*
X82188260Y-82335000D01*
X81895740Y-82335000D01*
X81608842Y-82392068D01*
X81338589Y-82504010D01*
X81095368Y-82666525D01*
X80963513Y-82798380D01*
X80941502Y-82725820D01*
X80882537Y-82615506D01*
X80803185Y-82518815D01*
X80706494Y-82439463D01*
X80596180Y-82380498D01*
X80476482Y-82344188D01*
X80352000Y-82331928D01*
X79787750Y-82335000D01*
X79629000Y-82493750D01*
X79375000Y-82493750D01*
X79216250Y-82335000D01*
X78652000Y-82331928D01*
X78527518Y-82344188D01*
X78407820Y-82380498D01*
X78297506Y-82439463D01*
X78200815Y-82518815D01*
X78121463Y-82615506D01*
X78062498Y-82725820D01*
X78026188Y-82845518D01*
X78013928Y-82970000D01*
X45847000Y-82970000D01*
X45847000Y-74783740D01*
X56935000Y-74783740D01*
X56935000Y-75076260D01*
X56992068Y-75363158D01*
X57104010Y-75633411D01*
X57266525Y-75876632D01*
X57473368Y-76083475D01*
X57716589Y-76245990D01*
X57986842Y-76357932D01*
X58273740Y-76415000D01*
X58566260Y-76415000D01*
X58853158Y-76357932D01*
X59123411Y-76245990D01*
X59366632Y-76083475D01*
X59573475Y-75876632D01*
X59690000Y-75702240D01*
X59806525Y-75876632D01*
X60013368Y-76083475D01*
X60256589Y-76245990D01*
X60526842Y-76357932D01*
X60813740Y-76415000D01*
X61106260Y-76415000D01*
X61393158Y-76357932D01*
X61663411Y-76245990D01*
X61906632Y-76083475D01*
X62113475Y-75876632D01*
X62230000Y-75702240D01*
X62346525Y-75876632D01*
X62553368Y-76083475D01*
X62796589Y-76245990D01*
X63066842Y-76357932D01*
X63353740Y-76415000D01*
X63646260Y-76415000D01*
X63933158Y-76357932D01*
X64203411Y-76245990D01*
X64446632Y-76083475D01*
X64578487Y-75951620D01*
X64600498Y-76024180D01*
X64659463Y-76134494D01*
X64738815Y-76231185D01*
X64835506Y-76310537D01*
X64945820Y-76369502D01*
X65065518Y-76405812D01*
X65190000Y-76418072D01*
X65754250Y-76415000D01*
X65913000Y-76256250D01*
X65913000Y-75057000D01*
X66167000Y-75057000D01*
X66167000Y-76256250D01*
X66325750Y-76415000D01*
X66890000Y-76418072D01*
X67014482Y-76405812D01*
X67134180Y-76369502D01*
X67244494Y-76310537D01*
X67341185Y-76231185D01*
X67420537Y-76134494D01*
X67479502Y-76024180D01*
X67515812Y-75904482D01*
X67528072Y-75780000D01*
X67525000Y-75215750D01*
X67366250Y-75057000D01*
X66167000Y-75057000D01*
X65913000Y-75057000D01*
X65893000Y-75057000D01*
X65893000Y-74803000D01*
X65913000Y-74803000D01*
X65913000Y-73603750D01*
X66167000Y-73603750D01*
X66167000Y-74803000D01*
X67366250Y-74803000D01*
X67385510Y-74783740D01*
X79795000Y-74783740D01*
X79795000Y-75076260D01*
X79852068Y-75363158D01*
X79964010Y-75633411D01*
X80126525Y-75876632D01*
X80333368Y-76083475D01*
X80576589Y-76245990D01*
X80846842Y-76357932D01*
X81133740Y-76415000D01*
X81426260Y-76415000D01*
X81713158Y-76357932D01*
X81983411Y-76245990D01*
X82226632Y-76083475D01*
X82433475Y-75876632D01*
X82550000Y-75702240D01*
X82666525Y-75876632D01*
X82873368Y-76083475D01*
X83116589Y-76245990D01*
X83386842Y-76357932D01*
X83673740Y-76415000D01*
X83966260Y-76415000D01*
X84253158Y-76357932D01*
X84523411Y-76245990D01*
X84766632Y-76083475D01*
X84973475Y-75876632D01*
X85090000Y-75702240D01*
X85206525Y-75876632D01*
X85413368Y-76083475D01*
X85656589Y-76245990D01*
X85926842Y-76357932D01*
X86213740Y-76415000D01*
X86506260Y-76415000D01*
X86793158Y-76357932D01*
X87063411Y-76245990D01*
X87306632Y-76083475D01*
X87513475Y-75876632D01*
X87630000Y-75702240D01*
X87746525Y-75876632D01*
X87953368Y-76083475D01*
X88196589Y-76245990D01*
X88466842Y-76357932D01*
X88753740Y-76415000D01*
X89046260Y-76415000D01*
X89333158Y-76357932D01*
X89603411Y-76245990D01*
X89846632Y-76083475D01*
X90053475Y-75876632D01*
X90170000Y-75702240D01*
X90286525Y-75876632D01*
X90493368Y-76083475D01*
X90736589Y-76245990D01*
X91006842Y-76357932D01*
X91293740Y-76415000D01*
X91586260Y-76415000D01*
X91873158Y-76357932D01*
X92143411Y-76245990D01*
X92386632Y-76083475D01*
X92593475Y-75876632D01*
X92710000Y-75702240D01*
X92826525Y-75876632D01*
X93033368Y-76083475D01*
X93276589Y-76245990D01*
X93546842Y-76357932D01*
X93833740Y-76415000D01*
X94126260Y-76415000D01*
X94413158Y-76357932D01*
X94683411Y-76245990D01*
X94926632Y-76083475D01*
X95133475Y-75876632D01*
X95250000Y-75702240D01*
X95366525Y-75876632D01*
X95573368Y-76083475D01*
X95816589Y-76245990D01*
X96086842Y-76357932D01*
X96373740Y-76415000D01*
X96666260Y-76415000D01*
X96953158Y-76357932D01*
X97223411Y-76245990D01*
X97466632Y-76083475D01*
X97673475Y-75876632D01*
X97790000Y-75702240D01*
X97906525Y-75876632D01*
X98113368Y-76083475D01*
X98356589Y-76245990D01*
X98626842Y-76357932D01*
X98913740Y-76415000D01*
X99206260Y-76415000D01*
X99493158Y-76357932D01*
X99763411Y-76245990D01*
X100006632Y-76083475D01*
X100213475Y-75876632D01*
X100330000Y-75702240D01*
X100446525Y-75876632D01*
X100653368Y-76083475D01*
X100896589Y-76245990D01*
X101166842Y-76357932D01*
X101453740Y-76415000D01*
X101746260Y-76415000D01*
X102033158Y-76357932D01*
X102303411Y-76245990D01*
X102546632Y-76083475D01*
X102753475Y-75876632D01*
X102870000Y-75702240D01*
X102986525Y-75876632D01*
X103193368Y-76083475D01*
X103436589Y-76245990D01*
X103706842Y-76357932D01*
X103993740Y-76415000D01*
X104286260Y-76415000D01*
X104573158Y-76357932D01*
X104843411Y-76245990D01*
X105086632Y-76083475D01*
X105293475Y-75876632D01*
X105410000Y-75702240D01*
X105526525Y-75876632D01*
X105733368Y-76083475D01*
X105976589Y-76245990D01*
X106246842Y-76357932D01*
X106533740Y-76415000D01*
X106826260Y-76415000D01*
X107113158Y-76357932D01*
X107383411Y-76245990D01*
X107626632Y-76083475D01*
X107833475Y-75876632D01*
X107950000Y-75702240D01*
X108066525Y-75876632D01*
X108273368Y-76083475D01*
X108516589Y-76245990D01*
X108786842Y-76357932D01*
X109073740Y-76415000D01*
X109366260Y-76415000D01*
X109653158Y-76357932D01*
X109923411Y-76245990D01*
X110166632Y-76083475D01*
X110373475Y-75876632D01*
X110490000Y-75702240D01*
X110606525Y-75876632D01*
X110813368Y-76083475D01*
X111056589Y-76245990D01*
X111326842Y-76357932D01*
X111613740Y-76415000D01*
X111906260Y-76415000D01*
X112193158Y-76357932D01*
X112463411Y-76245990D01*
X112706632Y-76083475D01*
X112913475Y-75876632D01*
X113030000Y-75702240D01*
X113146525Y-75876632D01*
X113353368Y-76083475D01*
X113596589Y-76245990D01*
X113866842Y-76357932D01*
X114153740Y-76415000D01*
X114446260Y-76415000D01*
X114733158Y-76357932D01*
X115003411Y-76245990D01*
X115246632Y-76083475D01*
X115453475Y-75876632D01*
X115570000Y-75702240D01*
X115686525Y-75876632D01*
X115893368Y-76083475D01*
X116136589Y-76245990D01*
X116406842Y-76357932D01*
X116693740Y-76415000D01*
X116986260Y-76415000D01*
X117273158Y-76357932D01*
X117543411Y-76245990D01*
X117786632Y-76083475D01*
X117993475Y-75876632D01*
X118110000Y-75702240D01*
X118226525Y-75876632D01*
X118433368Y-76083475D01*
X118676589Y-76245990D01*
X118946842Y-76357932D01*
X119233740Y-76415000D01*
X119526260Y-76415000D01*
X119813158Y-76357932D01*
X120083411Y-76245990D01*
X120326632Y-76083475D01*
X120533475Y-75876632D01*
X120650000Y-75702240D01*
X120766525Y-75876632D01*
X120973368Y-76083475D01*
X121216589Y-76245990D01*
X121486842Y-76357932D01*
X121773740Y-76415000D01*
X122066260Y-76415000D01*
X122353158Y-76357932D01*
X122623411Y-76245990D01*
X122866632Y-76083475D01*
X123073475Y-75876632D01*
X123190000Y-75702240D01*
X123306525Y-75876632D01*
X123513368Y-76083475D01*
X123756589Y-76245990D01*
X124026842Y-76357932D01*
X124313740Y-76415000D01*
X124606260Y-76415000D01*
X124893158Y-76357932D01*
X125163411Y-76245990D01*
X125406632Y-76083475D01*
X125538487Y-75951620D01*
X125560498Y-76024180D01*
X125619463Y-76134494D01*
X125698815Y-76231185D01*
X125795506Y-76310537D01*
X125905820Y-76369502D01*
X126025518Y-76405812D01*
X126150000Y-76418072D01*
X127850000Y-76418072D01*
X127974482Y-76405812D01*
X128094180Y-76369502D01*
X128204494Y-76310537D01*
X128301185Y-76231185D01*
X128380537Y-76134494D01*
X128439502Y-76024180D01*
X128475812Y-75904482D01*
X128488072Y-75780000D01*
X128488072Y-74080000D01*
X128475812Y-73955518D01*
X128439502Y-73835820D01*
X128380537Y-73725506D01*
X128301185Y-73628815D01*
X128204494Y-73549463D01*
X128094180Y-73490498D01*
X127974482Y-73454188D01*
X127850000Y-73441928D01*
X126150000Y-73441928D01*
X126025518Y-73454188D01*
X125905820Y-73490498D01*
X125795506Y-73549463D01*
X125698815Y-73628815D01*
X125619463Y-73725506D01*
X125560498Y-73835820D01*
X125538487Y-73908380D01*
X125406632Y-73776525D01*
X125163411Y-73614010D01*
X124893158Y-73502068D01*
X124606260Y-73445000D01*
X124313740Y-73445000D01*
X124026842Y-73502068D01*
X123756589Y-73614010D01*
X123513368Y-73776525D01*
X123306525Y-73983368D01*
X123190000Y-74157760D01*
X123073475Y-73983368D01*
X122866632Y-73776525D01*
X122623411Y-73614010D01*
X122353158Y-73502068D01*
X122066260Y-73445000D01*
X121773740Y-73445000D01*
X121486842Y-73502068D01*
X121216589Y-73614010D01*
X120973368Y-73776525D01*
X120766525Y-73983368D01*
X120650000Y-74157760D01*
X120533475Y-73983368D01*
X120326632Y-73776525D01*
X120083411Y-73614010D01*
X119813158Y-73502068D01*
X119526260Y-73445000D01*
X119233740Y-73445000D01*
X118946842Y-73502068D01*
X118676589Y-73614010D01*
X118433368Y-73776525D01*
X118226525Y-73983368D01*
X118110000Y-74157760D01*
X117993475Y-73983368D01*
X117786632Y-73776525D01*
X117543411Y-73614010D01*
X117273158Y-73502068D01*
X116986260Y-73445000D01*
X116693740Y-73445000D01*
X116406842Y-73502068D01*
X116136589Y-73614010D01*
X115893368Y-73776525D01*
X115686525Y-73983368D01*
X115570000Y-74157760D01*
X115453475Y-73983368D01*
X115246632Y-73776525D01*
X115003411Y-73614010D01*
X114733158Y-73502068D01*
X114446260Y-73445000D01*
X114153740Y-73445000D01*
X113866842Y-73502068D01*
X113596589Y-73614010D01*
X113353368Y-73776525D01*
X113146525Y-73983368D01*
X113030000Y-74157760D01*
X112913475Y-73983368D01*
X112706632Y-73776525D01*
X112463411Y-73614010D01*
X112193158Y-73502068D01*
X111906260Y-73445000D01*
X111613740Y-73445000D01*
X111326842Y-73502068D01*
X111056589Y-73614010D01*
X110813368Y-73776525D01*
X110606525Y-73983368D01*
X110490000Y-74157760D01*
X110373475Y-73983368D01*
X110166632Y-73776525D01*
X109923411Y-73614010D01*
X109653158Y-73502068D01*
X109366260Y-73445000D01*
X109073740Y-73445000D01*
X108786842Y-73502068D01*
X108516589Y-73614010D01*
X108273368Y-73776525D01*
X108066525Y-73983368D01*
X107950000Y-74157760D01*
X107833475Y-73983368D01*
X107626632Y-73776525D01*
X107383411Y-73614010D01*
X107113158Y-73502068D01*
X106826260Y-73445000D01*
X106533740Y-73445000D01*
X106246842Y-73502068D01*
X105976589Y-73614010D01*
X105733368Y-73776525D01*
X105526525Y-73983368D01*
X105410000Y-74157760D01*
X105293475Y-73983368D01*
X105086632Y-73776525D01*
X104843411Y-73614010D01*
X104573158Y-73502068D01*
X104286260Y-73445000D01*
X103993740Y-73445000D01*
X103706842Y-73502068D01*
X103436589Y-73614010D01*
X103193368Y-73776525D01*
X102986525Y-73983368D01*
X102870000Y-74157760D01*
X102753475Y-73983368D01*
X102546632Y-73776525D01*
X102303411Y-73614010D01*
X102033158Y-73502068D01*
X101746260Y-73445000D01*
X101453740Y-73445000D01*
X101166842Y-73502068D01*
X100896589Y-73614010D01*
X100653368Y-73776525D01*
X100446525Y-73983368D01*
X100330000Y-74157760D01*
X100213475Y-73983368D01*
X100006632Y-73776525D01*
X99763411Y-73614010D01*
X99493158Y-73502068D01*
X99206260Y-73445000D01*
X98913740Y-73445000D01*
X98626842Y-73502068D01*
X98356589Y-73614010D01*
X98113368Y-73776525D01*
X97906525Y-73983368D01*
X97790000Y-74157760D01*
X97673475Y-73983368D01*
X97466632Y-73776525D01*
X97223411Y-73614010D01*
X96953158Y-73502068D01*
X96666260Y-73445000D01*
X96373740Y-73445000D01*
X96086842Y-73502068D01*
X95816589Y-73614010D01*
X95573368Y-73776525D01*
X95366525Y-73983368D01*
X95250000Y-74157760D01*
X95133475Y-73983368D01*
X94926632Y-73776525D01*
X94683411Y-73614010D01*
X94413158Y-73502068D01*
X94126260Y-73445000D01*
X93833740Y-73445000D01*
X93546842Y-73502068D01*
X93276589Y-73614010D01*
X93033368Y-73776525D01*
X92826525Y-73983368D01*
X92710000Y-74157760D01*
X92593475Y-73983368D01*
X92386632Y-73776525D01*
X92143411Y-73614010D01*
X91873158Y-73502068D01*
X91586260Y-73445000D01*
X91293740Y-73445000D01*
X91006842Y-73502068D01*
X90736589Y-73614010D01*
X90493368Y-73776525D01*
X90286525Y-73983368D01*
X90170000Y-74157760D01*
X90053475Y-73983368D01*
X89846632Y-73776525D01*
X89603411Y-73614010D01*
X89333158Y-73502068D01*
X89046260Y-73445000D01*
X88753740Y-73445000D01*
X88466842Y-73502068D01*
X88196589Y-73614010D01*
X87953368Y-73776525D01*
X87746525Y-73983368D01*
X87630000Y-74157760D01*
X87513475Y-73983368D01*
X87306632Y-73776525D01*
X87063411Y-73614010D01*
X86793158Y-73502068D01*
X86506260Y-73445000D01*
X86213740Y-73445000D01*
X85926842Y-73502068D01*
X85656589Y-73614010D01*
X85413368Y-73776525D01*
X85206525Y-73983368D01*
X85090000Y-74157760D01*
X84973475Y-73983368D01*
X84766632Y-73776525D01*
X84523411Y-73614010D01*
X84253158Y-73502068D01*
X83966260Y-73445000D01*
X83673740Y-73445000D01*
X83386842Y-73502068D01*
X83116589Y-73614010D01*
X82873368Y-73776525D01*
X82666525Y-73983368D01*
X82550000Y-74157760D01*
X82433475Y-73983368D01*
X82226632Y-73776525D01*
X81983411Y-73614010D01*
X81713158Y-73502068D01*
X81426260Y-73445000D01*
X81133740Y-73445000D01*
X80846842Y-73502068D01*
X80576589Y-73614010D01*
X80333368Y-73776525D01*
X80126525Y-73983368D01*
X79964010Y-74226589D01*
X79852068Y-74496842D01*
X79795000Y-74783740D01*
X67385510Y-74783740D01*
X67525000Y-74644250D01*
X67528072Y-74080000D01*
X67515812Y-73955518D01*
X67479502Y-73835820D01*
X67420537Y-73725506D01*
X67341185Y-73628815D01*
X67244494Y-73549463D01*
X67134180Y-73490498D01*
X67014482Y-73454188D01*
X66890000Y-73441928D01*
X66325750Y-73445000D01*
X66167000Y-73603750D01*
X65913000Y-73603750D01*
X65754250Y-73445000D01*
X65190000Y-73441928D01*
X65065518Y-73454188D01*
X64945820Y-73490498D01*
X64835506Y-73549463D01*
X64738815Y-73628815D01*
X64659463Y-73725506D01*
X64600498Y-73835820D01*
X64578487Y-73908380D01*
X64446632Y-73776525D01*
X64203411Y-73614010D01*
X63933158Y-73502068D01*
X63646260Y-73445000D01*
X63353740Y-73445000D01*
X63066842Y-73502068D01*
X62796589Y-73614010D01*
X62553368Y-73776525D01*
X62346525Y-73983368D01*
X62230000Y-74157760D01*
X62113475Y-73983368D01*
X61906632Y-73776525D01*
X61663411Y-73614010D01*
X61393158Y-73502068D01*
X61106260Y-73445000D01*
X60813740Y-73445000D01*
X60526842Y-73502068D01*
X60256589Y-73614010D01*
X60013368Y-73776525D01*
X59806525Y-73983368D01*
X59690000Y-74157760D01*
X59573475Y-73983368D01*
X59366632Y-73776525D01*
X59123411Y-73614010D01*
X58853158Y-73502068D01*
X58566260Y-73445000D01*
X58273740Y-73445000D01*
X57986842Y-73502068D01*
X57716589Y-73614010D01*
X57473368Y-73776525D01*
X57266525Y-73983368D01*
X57104010Y-74226589D01*
X56992068Y-74496842D01*
X56935000Y-74783740D01*
X45847000Y-74783740D01*
X45847000Y-63080000D01*
X46771928Y-63080000D01*
X46784188Y-63204482D01*
X46820498Y-63324180D01*
X46879463Y-63434494D01*
X46958815Y-63531185D01*
X47055506Y-63610537D01*
X47165820Y-63669502D01*
X47285518Y-63705812D01*
X47410000Y-63718072D01*
X47974250Y-63715000D01*
X48133000Y-63556250D01*
X48133000Y-62357000D01*
X48387000Y-62357000D01*
X48387000Y-63556250D01*
X48545750Y-63715000D01*
X49110000Y-63718072D01*
X49234482Y-63705812D01*
X49354180Y-63669502D01*
X49464494Y-63610537D01*
X49561185Y-63531185D01*
X49640537Y-63434494D01*
X49699502Y-63324180D01*
X49735812Y-63204482D01*
X49748072Y-63080000D01*
X49745000Y-62515750D01*
X49586250Y-62357000D01*
X48387000Y-62357000D01*
X48133000Y-62357000D01*
X46933750Y-62357000D01*
X46775000Y-62515750D01*
X46771928Y-63080000D01*
X45847000Y-63080000D01*
X45847000Y-61380000D01*
X46771928Y-61380000D01*
X46775000Y-61944250D01*
X46933750Y-62103000D01*
X48133000Y-62103000D01*
X48133000Y-62083000D01*
X48387000Y-62083000D01*
X48387000Y-62103000D01*
X49586250Y-62103000D01*
X49745000Y-61944250D01*
X49745623Y-61829740D01*
X56935000Y-61829740D01*
X56935000Y-62122260D01*
X56992068Y-62409158D01*
X57104010Y-62679411D01*
X57266525Y-62922632D01*
X57473368Y-63129475D01*
X57716589Y-63291990D01*
X57986842Y-63403932D01*
X58273740Y-63461000D01*
X58566260Y-63461000D01*
X58853158Y-63403932D01*
X59123411Y-63291990D01*
X59366632Y-63129475D01*
X59573475Y-62922632D01*
X59690000Y-62748240D01*
X59806525Y-62922632D01*
X60013368Y-63129475D01*
X60256589Y-63291990D01*
X60526842Y-63403932D01*
X60813740Y-63461000D01*
X61106260Y-63461000D01*
X61393158Y-63403932D01*
X61663411Y-63291990D01*
X61906632Y-63129475D01*
X62113475Y-62922632D01*
X62230000Y-62748240D01*
X62346525Y-62922632D01*
X62553368Y-63129475D01*
X62796589Y-63291990D01*
X63066842Y-63403932D01*
X63353740Y-63461000D01*
X63646260Y-63461000D01*
X63933158Y-63403932D01*
X64203411Y-63291990D01*
X64446632Y-63129475D01*
X64578487Y-62997620D01*
X64600498Y-63070180D01*
X64659463Y-63180494D01*
X64738815Y-63277185D01*
X64835506Y-63356537D01*
X64945820Y-63415502D01*
X65065518Y-63451812D01*
X65190000Y-63464072D01*
X65754250Y-63461000D01*
X65913000Y-63302250D01*
X65913000Y-62103000D01*
X66167000Y-62103000D01*
X66167000Y-63302250D01*
X66325750Y-63461000D01*
X66890000Y-63464072D01*
X67014482Y-63451812D01*
X67134180Y-63415502D01*
X67244494Y-63356537D01*
X67341185Y-63277185D01*
X67420537Y-63180494D01*
X67479502Y-63070180D01*
X67515812Y-62950482D01*
X67528072Y-62826000D01*
X67525000Y-62261750D01*
X67366250Y-62103000D01*
X66167000Y-62103000D01*
X65913000Y-62103000D01*
X65893000Y-62103000D01*
X65893000Y-61849000D01*
X65913000Y-61849000D01*
X65913000Y-60649750D01*
X66167000Y-60649750D01*
X66167000Y-61849000D01*
X67366250Y-61849000D01*
X67525000Y-61690250D01*
X67528072Y-61126000D01*
X67515812Y-61001518D01*
X67479502Y-60881820D01*
X67420537Y-60771506D01*
X67341185Y-60674815D01*
X67244494Y-60595463D01*
X67134180Y-60536498D01*
X67014482Y-60500188D01*
X66890000Y-60487928D01*
X66325750Y-60491000D01*
X66167000Y-60649750D01*
X65913000Y-60649750D01*
X65754250Y-60491000D01*
X65190000Y-60487928D01*
X65065518Y-60500188D01*
X64945820Y-60536498D01*
X64835506Y-60595463D01*
X64738815Y-60674815D01*
X64659463Y-60771506D01*
X64600498Y-60881820D01*
X64578487Y-60954380D01*
X64446632Y-60822525D01*
X64203411Y-60660010D01*
X63933158Y-60548068D01*
X63646260Y-60491000D01*
X63353740Y-60491000D01*
X63066842Y-60548068D01*
X62796589Y-60660010D01*
X62553368Y-60822525D01*
X62346525Y-61029368D01*
X62230000Y-61203760D01*
X62113475Y-61029368D01*
X61906632Y-60822525D01*
X61663411Y-60660010D01*
X61393158Y-60548068D01*
X61106260Y-60491000D01*
X60813740Y-60491000D01*
X60526842Y-60548068D01*
X60256589Y-60660010D01*
X60013368Y-60822525D01*
X59806525Y-61029368D01*
X59690000Y-61203760D01*
X59573475Y-61029368D01*
X59366632Y-60822525D01*
X59123411Y-60660010D01*
X58853158Y-60548068D01*
X58566260Y-60491000D01*
X58273740Y-60491000D01*
X57986842Y-60548068D01*
X57716589Y-60660010D01*
X57473368Y-60822525D01*
X57266525Y-61029368D01*
X57104010Y-61272589D01*
X56992068Y-61542842D01*
X56935000Y-61829740D01*
X49745623Y-61829740D01*
X49748072Y-61380000D01*
X49735812Y-61255518D01*
X49699502Y-61135820D01*
X49640537Y-61025506D01*
X49561185Y-60928815D01*
X49464494Y-60849463D01*
X49354180Y-60790498D01*
X49281620Y-60768487D01*
X49413475Y-60636632D01*
X49575990Y-60393411D01*
X49687932Y-60123158D01*
X49745000Y-59836260D01*
X49745000Y-59543740D01*
X49687932Y-59256842D01*
X49575990Y-58986589D01*
X49413475Y-58743368D01*
X49206632Y-58536525D01*
X49032240Y-58420000D01*
X49206632Y-58303475D01*
X49413475Y-58096632D01*
X49575990Y-57853411D01*
X49687932Y-57583158D01*
X49745000Y-57296260D01*
X49745000Y-57003740D01*
X49687932Y-56716842D01*
X49575990Y-56446589D01*
X49413475Y-56203368D01*
X49206632Y-55996525D01*
X48963411Y-55834010D01*
X48693158Y-55722068D01*
X48406260Y-55665000D01*
X48113740Y-55665000D01*
X47826842Y-55722068D01*
X47556589Y-55834010D01*
X47313368Y-55996525D01*
X47106525Y-56203368D01*
X46944010Y-56446589D01*
X46832068Y-56716842D01*
X46775000Y-57003740D01*
X46775000Y-57296260D01*
X46832068Y-57583158D01*
X46944010Y-57853411D01*
X47106525Y-58096632D01*
X47313368Y-58303475D01*
X47487760Y-58420000D01*
X47313368Y-58536525D01*
X47106525Y-58743368D01*
X46944010Y-58986589D01*
X46832068Y-59256842D01*
X46775000Y-59543740D01*
X46775000Y-59836260D01*
X46832068Y-60123158D01*
X46944010Y-60393411D01*
X47106525Y-60636632D01*
X47238380Y-60768487D01*
X47165820Y-60790498D01*
X47055506Y-60849463D01*
X46958815Y-60928815D01*
X46879463Y-61025506D01*
X46820498Y-61135820D01*
X46784188Y-61255518D01*
X46771928Y-61380000D01*
X45847000Y-61380000D01*
X45847000Y-49383740D01*
X56935000Y-49383740D01*
X56935000Y-49676260D01*
X56992068Y-49963158D01*
X57104010Y-50233411D01*
X57266525Y-50476632D01*
X57473368Y-50683475D01*
X57716589Y-50845990D01*
X57986842Y-50957932D01*
X58273740Y-51015000D01*
X58566260Y-51015000D01*
X58853158Y-50957932D01*
X59123411Y-50845990D01*
X59366632Y-50683475D01*
X59573475Y-50476632D01*
X59690000Y-50302240D01*
X59806525Y-50476632D01*
X60013368Y-50683475D01*
X60256589Y-50845990D01*
X60526842Y-50957932D01*
X60813740Y-51015000D01*
X61106260Y-51015000D01*
X61393158Y-50957932D01*
X61663411Y-50845990D01*
X61906632Y-50683475D01*
X62113475Y-50476632D01*
X62230000Y-50302240D01*
X62346525Y-50476632D01*
X62553368Y-50683475D01*
X62665000Y-50758065D01*
X62665001Y-55921934D01*
X62553368Y-55996525D01*
X62346525Y-56203368D01*
X62230000Y-56377760D01*
X62113475Y-56203368D01*
X61906632Y-55996525D01*
X61663411Y-55834010D01*
X61393158Y-55722068D01*
X61106260Y-55665000D01*
X60813740Y-55665000D01*
X60526842Y-55722068D01*
X60256589Y-55834010D01*
X60013368Y-55996525D01*
X59806525Y-56203368D01*
X59690000Y-56377760D01*
X59573475Y-56203368D01*
X59366632Y-55996525D01*
X59123411Y-55834010D01*
X58853158Y-55722068D01*
X58566260Y-55665000D01*
X58273740Y-55665000D01*
X57986842Y-55722068D01*
X57716589Y-55834010D01*
X57473368Y-55996525D01*
X57266525Y-56203368D01*
X57104010Y-56446589D01*
X56992068Y-56716842D01*
X56935000Y-57003740D01*
X56935000Y-57296260D01*
X56992068Y-57583158D01*
X57104010Y-57853411D01*
X57266525Y-58096632D01*
X57473368Y-58303475D01*
X57716589Y-58465990D01*
X57986842Y-58577932D01*
X58273740Y-58635000D01*
X58566260Y-58635000D01*
X58853158Y-58577932D01*
X59123411Y-58465990D01*
X59366632Y-58303475D01*
X59573475Y-58096632D01*
X59690000Y-57922240D01*
X59806525Y-58096632D01*
X60013368Y-58303475D01*
X60256589Y-58465990D01*
X60526842Y-58577932D01*
X60813740Y-58635000D01*
X61106260Y-58635000D01*
X61393158Y-58577932D01*
X61663411Y-58465990D01*
X61906632Y-58303475D01*
X62113475Y-58096632D01*
X62230000Y-57922240D01*
X62346525Y-58096632D01*
X62553368Y-58303475D01*
X62796589Y-58465990D01*
X63066842Y-58577932D01*
X63353740Y-58635000D01*
X63646260Y-58635000D01*
X63933158Y-58577932D01*
X64203411Y-58465990D01*
X64446632Y-58303475D01*
X64578487Y-58171620D01*
X64600498Y-58244180D01*
X64659463Y-58354494D01*
X64738815Y-58451185D01*
X64835506Y-58530537D01*
X64945820Y-58589502D01*
X65065518Y-58625812D01*
X65190000Y-58638072D01*
X65754250Y-58635000D01*
X65913000Y-58476250D01*
X65913000Y-57277000D01*
X66167000Y-57277000D01*
X66167000Y-58476250D01*
X66325750Y-58635000D01*
X66890000Y-58638072D01*
X67014482Y-58625812D01*
X67134180Y-58589502D01*
X67244494Y-58530537D01*
X67341185Y-58451185D01*
X67420537Y-58354494D01*
X67479502Y-58244180D01*
X67515812Y-58124482D01*
X67528072Y-58000000D01*
X67525000Y-57435750D01*
X67366250Y-57277000D01*
X66167000Y-57277000D01*
X65913000Y-57277000D01*
X65893000Y-57277000D01*
X65893000Y-57023000D01*
X65913000Y-57023000D01*
X65913000Y-55823750D01*
X66167000Y-55823750D01*
X66167000Y-57023000D01*
X67366250Y-57023000D01*
X67525000Y-56864250D01*
X67528072Y-56300000D01*
X67515812Y-56175518D01*
X67479502Y-56055820D01*
X67420537Y-55945506D01*
X67341185Y-55848815D01*
X67244494Y-55769463D01*
X67134180Y-55710498D01*
X67014482Y-55674188D01*
X66890000Y-55661928D01*
X66325750Y-55665000D01*
X66167000Y-55823750D01*
X65913000Y-55823750D01*
X65754250Y-55665000D01*
X65190000Y-55661928D01*
X65065518Y-55674188D01*
X64945820Y-55710498D01*
X64835506Y-55769463D01*
X64738815Y-55848815D01*
X64659463Y-55945506D01*
X64600498Y-56055820D01*
X64578487Y-56128380D01*
X64446632Y-55996525D01*
X64335000Y-55921935D01*
X64335000Y-50758065D01*
X64446632Y-50683475D01*
X64578487Y-50551620D01*
X64600498Y-50624180D01*
X64659463Y-50734494D01*
X64738815Y-50831185D01*
X64835506Y-50910537D01*
X64945820Y-50969502D01*
X65065518Y-51005812D01*
X65190000Y-51018072D01*
X65754250Y-51015000D01*
X65913000Y-50856250D01*
X65913000Y-49657000D01*
X66167000Y-49657000D01*
X66167000Y-50856250D01*
X66325750Y-51015000D01*
X66890000Y-51018072D01*
X67014482Y-51005812D01*
X67134180Y-50969502D01*
X67244494Y-50910537D01*
X67341185Y-50831185D01*
X67420537Y-50734494D01*
X67479502Y-50624180D01*
X67515812Y-50504482D01*
X67528072Y-50380000D01*
X67525388Y-49886891D01*
X79838519Y-49886891D01*
X79935843Y-50161252D01*
X80084822Y-50411355D01*
X80279731Y-50627588D01*
X80513080Y-50801641D01*
X80775901Y-50926825D01*
X80923110Y-50971476D01*
X81153000Y-50850155D01*
X81153000Y-49657000D01*
X79959186Y-49657000D01*
X79838519Y-49886891D01*
X67525388Y-49886891D01*
X67525000Y-49815750D01*
X67366250Y-49657000D01*
X66167000Y-49657000D01*
X65913000Y-49657000D01*
X65893000Y-49657000D01*
X65893000Y-49403000D01*
X65913000Y-49403000D01*
X65913000Y-49383000D01*
X66167000Y-49383000D01*
X66167000Y-49403000D01*
X67366250Y-49403000D01*
X67525000Y-49244250D01*
X67525387Y-49173109D01*
X79838519Y-49173109D01*
X79959186Y-49403000D01*
X81153000Y-49403000D01*
X81153000Y-48209845D01*
X81407000Y-48209845D01*
X81407000Y-49403000D01*
X81427000Y-49403000D01*
X81427000Y-49657000D01*
X81407000Y-49657000D01*
X81407000Y-50850155D01*
X81636890Y-50971476D01*
X81784099Y-50926825D01*
X82046920Y-50801641D01*
X82280269Y-50627588D01*
X82475178Y-50411355D01*
X82544805Y-50294466D01*
X82666525Y-50476632D01*
X82873368Y-50683475D01*
X83116589Y-50845990D01*
X83386842Y-50957932D01*
X83673740Y-51015000D01*
X83966260Y-51015000D01*
X84253158Y-50957932D01*
X84523411Y-50845990D01*
X84766632Y-50683475D01*
X84973475Y-50476632D01*
X85090000Y-50302240D01*
X85206525Y-50476632D01*
X85413368Y-50683475D01*
X85656589Y-50845990D01*
X85926842Y-50957932D01*
X86213740Y-51015000D01*
X86506260Y-51015000D01*
X86793158Y-50957932D01*
X87063411Y-50845990D01*
X87306632Y-50683475D01*
X87513475Y-50476632D01*
X87630000Y-50302240D01*
X87746525Y-50476632D01*
X87953368Y-50683475D01*
X88196589Y-50845990D01*
X88466842Y-50957932D01*
X88753740Y-51015000D01*
X89046260Y-51015000D01*
X89333158Y-50957932D01*
X89603411Y-50845990D01*
X89846632Y-50683475D01*
X90053475Y-50476632D01*
X90170000Y-50302240D01*
X90286525Y-50476632D01*
X90493368Y-50683475D01*
X90736589Y-50845990D01*
X91006842Y-50957932D01*
X91293740Y-51015000D01*
X91586260Y-51015000D01*
X91873158Y-50957932D01*
X92143411Y-50845990D01*
X92386632Y-50683475D01*
X92593475Y-50476632D01*
X92710000Y-50302240D01*
X92826525Y-50476632D01*
X93033368Y-50683475D01*
X93276589Y-50845990D01*
X93546842Y-50957932D01*
X93833740Y-51015000D01*
X94126260Y-51015000D01*
X94413158Y-50957932D01*
X94683411Y-50845990D01*
X94926632Y-50683475D01*
X95133475Y-50476632D01*
X95255195Y-50294466D01*
X95324822Y-50411355D01*
X95519731Y-50627588D01*
X95753080Y-50801641D01*
X96015901Y-50926825D01*
X96163110Y-50971476D01*
X96393000Y-50850155D01*
X96393000Y-49657000D01*
X96373000Y-49657000D01*
X96373000Y-49403000D01*
X96393000Y-49403000D01*
X96393000Y-48209845D01*
X96647000Y-48209845D01*
X96647000Y-49403000D01*
X96667000Y-49403000D01*
X96667000Y-49657000D01*
X96647000Y-49657000D01*
X96647000Y-50850155D01*
X96876890Y-50971476D01*
X97024099Y-50926825D01*
X97286920Y-50801641D01*
X97520269Y-50627588D01*
X97715178Y-50411355D01*
X97784805Y-50294466D01*
X97906525Y-50476632D01*
X98113368Y-50683475D01*
X98356589Y-50845990D01*
X98626842Y-50957932D01*
X98913740Y-51015000D01*
X99206260Y-51015000D01*
X99493158Y-50957932D01*
X99763411Y-50845990D01*
X100006632Y-50683475D01*
X100213475Y-50476632D01*
X100330000Y-50302240D01*
X100446525Y-50476632D01*
X100653368Y-50683475D01*
X100896589Y-50845990D01*
X101166842Y-50957932D01*
X101453740Y-51015000D01*
X101746260Y-51015000D01*
X102033158Y-50957932D01*
X102303411Y-50845990D01*
X102546632Y-50683475D01*
X102753475Y-50476632D01*
X102870000Y-50302240D01*
X102986525Y-50476632D01*
X103193368Y-50683475D01*
X103436589Y-50845990D01*
X103706842Y-50957932D01*
X103993740Y-51015000D01*
X104286260Y-51015000D01*
X104573158Y-50957932D01*
X104843411Y-50845990D01*
X105086632Y-50683475D01*
X105293475Y-50476632D01*
X105410000Y-50302240D01*
X105526525Y-50476632D01*
X105733368Y-50683475D01*
X105976589Y-50845990D01*
X106246842Y-50957932D01*
X106533740Y-51015000D01*
X106826260Y-51015000D01*
X107113158Y-50957932D01*
X107383411Y-50845990D01*
X107626632Y-50683475D01*
X107833475Y-50476632D01*
X107950000Y-50302240D01*
X108066525Y-50476632D01*
X108273368Y-50683475D01*
X108516589Y-50845990D01*
X108786842Y-50957932D01*
X109073740Y-51015000D01*
X109366260Y-51015000D01*
X109653158Y-50957932D01*
X109923411Y-50845990D01*
X110166632Y-50683475D01*
X110373475Y-50476632D01*
X110490000Y-50302240D01*
X110606525Y-50476632D01*
X110813368Y-50683475D01*
X111056589Y-50845990D01*
X111326842Y-50957932D01*
X111613740Y-51015000D01*
X111906260Y-51015000D01*
X112193158Y-50957932D01*
X112463411Y-50845990D01*
X112706632Y-50683475D01*
X112913475Y-50476632D01*
X113030000Y-50302240D01*
X113146525Y-50476632D01*
X113353368Y-50683475D01*
X113596589Y-50845990D01*
X113866842Y-50957932D01*
X114153740Y-51015000D01*
X114446260Y-51015000D01*
X114733158Y-50957932D01*
X115003411Y-50845990D01*
X115246632Y-50683475D01*
X115453475Y-50476632D01*
X115570000Y-50302240D01*
X115686525Y-50476632D01*
X115893368Y-50683475D01*
X116136589Y-50845990D01*
X116406842Y-50957932D01*
X116693740Y-51015000D01*
X116986260Y-51015000D01*
X117273158Y-50957932D01*
X117543411Y-50845990D01*
X117786632Y-50683475D01*
X117993475Y-50476632D01*
X118110000Y-50302240D01*
X118226525Y-50476632D01*
X118433368Y-50683475D01*
X118676589Y-50845990D01*
X118946842Y-50957932D01*
X119233740Y-51015000D01*
X119526260Y-51015000D01*
X119813158Y-50957932D01*
X120083411Y-50845990D01*
X120326632Y-50683475D01*
X120533475Y-50476632D01*
X120650000Y-50302240D01*
X120766525Y-50476632D01*
X120973368Y-50683475D01*
X121216589Y-50845990D01*
X121486842Y-50957932D01*
X121773740Y-51015000D01*
X122066260Y-51015000D01*
X122353158Y-50957932D01*
X122623411Y-50845990D01*
X122866632Y-50683475D01*
X123073475Y-50476632D01*
X123190000Y-50302240D01*
X123306525Y-50476632D01*
X123513368Y-50683475D01*
X123756589Y-50845990D01*
X124026842Y-50957932D01*
X124313740Y-51015000D01*
X124606260Y-51015000D01*
X124893158Y-50957932D01*
X125163411Y-50845990D01*
X125406632Y-50683475D01*
X125538487Y-50551620D01*
X125560498Y-50624180D01*
X125619463Y-50734494D01*
X125698815Y-50831185D01*
X125795506Y-50910537D01*
X125905820Y-50969502D01*
X126025518Y-51005812D01*
X126150000Y-51018072D01*
X127850000Y-51018072D01*
X127974482Y-51005812D01*
X128094180Y-50969502D01*
X128204494Y-50910537D01*
X128301185Y-50831185D01*
X128380537Y-50734494D01*
X128439502Y-50624180D01*
X128475812Y-50504482D01*
X128488072Y-50380000D01*
X128488072Y-48680000D01*
X128475812Y-48555518D01*
X128439502Y-48435820D01*
X128380537Y-48325506D01*
X128301185Y-48228815D01*
X128204494Y-48149463D01*
X128094180Y-48090498D01*
X127974482Y-48054188D01*
X127850000Y-48041928D01*
X126150000Y-48041928D01*
X126025518Y-48054188D01*
X125905820Y-48090498D01*
X125795506Y-48149463D01*
X125698815Y-48228815D01*
X125619463Y-48325506D01*
X125560498Y-48435820D01*
X125538487Y-48508380D01*
X125406632Y-48376525D01*
X125163411Y-48214010D01*
X124893158Y-48102068D01*
X124606260Y-48045000D01*
X124313740Y-48045000D01*
X124026842Y-48102068D01*
X123756589Y-48214010D01*
X123513368Y-48376525D01*
X123306525Y-48583368D01*
X123190000Y-48757760D01*
X123073475Y-48583368D01*
X122866632Y-48376525D01*
X122623411Y-48214010D01*
X122353158Y-48102068D01*
X122066260Y-48045000D01*
X121773740Y-48045000D01*
X121486842Y-48102068D01*
X121216589Y-48214010D01*
X120973368Y-48376525D01*
X120766525Y-48583368D01*
X120650000Y-48757760D01*
X120533475Y-48583368D01*
X120326632Y-48376525D01*
X120083411Y-48214010D01*
X119813158Y-48102068D01*
X119526260Y-48045000D01*
X119233740Y-48045000D01*
X118946842Y-48102068D01*
X118676589Y-48214010D01*
X118433368Y-48376525D01*
X118226525Y-48583368D01*
X118110000Y-48757760D01*
X117993475Y-48583368D01*
X117786632Y-48376525D01*
X117543411Y-48214010D01*
X117273158Y-48102068D01*
X116986260Y-48045000D01*
X116693740Y-48045000D01*
X116406842Y-48102068D01*
X116136589Y-48214010D01*
X115893368Y-48376525D01*
X115686525Y-48583368D01*
X115570000Y-48757760D01*
X115453475Y-48583368D01*
X115246632Y-48376525D01*
X115003411Y-48214010D01*
X114733158Y-48102068D01*
X114446260Y-48045000D01*
X114153740Y-48045000D01*
X113866842Y-48102068D01*
X113596589Y-48214010D01*
X113353368Y-48376525D01*
X113146525Y-48583368D01*
X113030000Y-48757760D01*
X112913475Y-48583368D01*
X112706632Y-48376525D01*
X112463411Y-48214010D01*
X112193158Y-48102068D01*
X111906260Y-48045000D01*
X111613740Y-48045000D01*
X111326842Y-48102068D01*
X111056589Y-48214010D01*
X110813368Y-48376525D01*
X110606525Y-48583368D01*
X110490000Y-48757760D01*
X110373475Y-48583368D01*
X110166632Y-48376525D01*
X109923411Y-48214010D01*
X109653158Y-48102068D01*
X109366260Y-48045000D01*
X109073740Y-48045000D01*
X108786842Y-48102068D01*
X108516589Y-48214010D01*
X108273368Y-48376525D01*
X108066525Y-48583368D01*
X107950000Y-48757760D01*
X107833475Y-48583368D01*
X107626632Y-48376525D01*
X107383411Y-48214010D01*
X107113158Y-48102068D01*
X106826260Y-48045000D01*
X106533740Y-48045000D01*
X106246842Y-48102068D01*
X105976589Y-48214010D01*
X105733368Y-48376525D01*
X105526525Y-48583368D01*
X105410000Y-48757760D01*
X105293475Y-48583368D01*
X105086632Y-48376525D01*
X104843411Y-48214010D01*
X104573158Y-48102068D01*
X104286260Y-48045000D01*
X103993740Y-48045000D01*
X103706842Y-48102068D01*
X103436589Y-48214010D01*
X103193368Y-48376525D01*
X102986525Y-48583368D01*
X102870000Y-48757760D01*
X102753475Y-48583368D01*
X102546632Y-48376525D01*
X102303411Y-48214010D01*
X102033158Y-48102068D01*
X101746260Y-48045000D01*
X101453740Y-48045000D01*
X101166842Y-48102068D01*
X100896589Y-48214010D01*
X100653368Y-48376525D01*
X100446525Y-48583368D01*
X100330000Y-48757760D01*
X100213475Y-48583368D01*
X100006632Y-48376525D01*
X99763411Y-48214010D01*
X99493158Y-48102068D01*
X99206260Y-48045000D01*
X98913740Y-48045000D01*
X98626842Y-48102068D01*
X98356589Y-48214010D01*
X98113368Y-48376525D01*
X97906525Y-48583368D01*
X97784805Y-48765534D01*
X97715178Y-48648645D01*
X97520269Y-48432412D01*
X97286920Y-48258359D01*
X97024099Y-48133175D01*
X96876890Y-48088524D01*
X96647000Y-48209845D01*
X96393000Y-48209845D01*
X96163110Y-48088524D01*
X96015901Y-48133175D01*
X95753080Y-48258359D01*
X95519731Y-48432412D01*
X95324822Y-48648645D01*
X95255195Y-48765534D01*
X95133475Y-48583368D01*
X94926632Y-48376525D01*
X94683411Y-48214010D01*
X94413158Y-48102068D01*
X94126260Y-48045000D01*
X93833740Y-48045000D01*
X93546842Y-48102068D01*
X93276589Y-48214010D01*
X93033368Y-48376525D01*
X92826525Y-48583368D01*
X92710000Y-48757760D01*
X92593475Y-48583368D01*
X92386632Y-48376525D01*
X92143411Y-48214010D01*
X91873158Y-48102068D01*
X91586260Y-48045000D01*
X91293740Y-48045000D01*
X91006842Y-48102068D01*
X90736589Y-48214010D01*
X90493368Y-48376525D01*
X90286525Y-48583368D01*
X90170000Y-48757760D01*
X90053475Y-48583368D01*
X89846632Y-48376525D01*
X89603411Y-48214010D01*
X89333158Y-48102068D01*
X89046260Y-48045000D01*
X88753740Y-48045000D01*
X88466842Y-48102068D01*
X88196589Y-48214010D01*
X87953368Y-48376525D01*
X87746525Y-48583368D01*
X87630000Y-48757760D01*
X87513475Y-48583368D01*
X87306632Y-48376525D01*
X87063411Y-48214010D01*
X86793158Y-48102068D01*
X86506260Y-48045000D01*
X86213740Y-48045000D01*
X85926842Y-48102068D01*
X85656589Y-48214010D01*
X85413368Y-48376525D01*
X85206525Y-48583368D01*
X85090000Y-48757760D01*
X84973475Y-48583368D01*
X84766632Y-48376525D01*
X84523411Y-48214010D01*
X84253158Y-48102068D01*
X83966260Y-48045000D01*
X83673740Y-48045000D01*
X83386842Y-48102068D01*
X83116589Y-48214010D01*
X82873368Y-48376525D01*
X82666525Y-48583368D01*
X82544805Y-48765534D01*
X82475178Y-48648645D01*
X82280269Y-48432412D01*
X82046920Y-48258359D01*
X81784099Y-48133175D01*
X81636890Y-48088524D01*
X81407000Y-48209845D01*
X81153000Y-48209845D01*
X80923110Y-48088524D01*
X80775901Y-48133175D01*
X80513080Y-48258359D01*
X80279731Y-48432412D01*
X80084822Y-48648645D01*
X79935843Y-48898748D01*
X79838519Y-49173109D01*
X67525387Y-49173109D01*
X67528072Y-48680000D01*
X67515812Y-48555518D01*
X67479502Y-48435820D01*
X67420537Y-48325506D01*
X67341185Y-48228815D01*
X67244494Y-48149463D01*
X67134180Y-48090498D01*
X67014482Y-48054188D01*
X66890000Y-48041928D01*
X66325750Y-48045000D01*
X66167002Y-48203748D01*
X66167002Y-48045000D01*
X66165867Y-48045000D01*
X72443427Y-41767441D01*
X72475291Y-41741291D01*
X72579636Y-41614146D01*
X72657172Y-41469087D01*
X72704918Y-41311689D01*
X72717000Y-41189019D01*
X72721040Y-41148001D01*
X72717000Y-41106982D01*
X72717000Y-35518065D01*
X72828632Y-35443475D01*
X73035475Y-35236632D01*
X73152000Y-35062240D01*
X73268525Y-35236632D01*
X73475368Y-35443475D01*
X73718589Y-35605990D01*
X73988842Y-35717932D01*
X74275740Y-35775000D01*
X74568260Y-35775000D01*
X74855158Y-35717932D01*
X75125411Y-35605990D01*
X75368632Y-35443475D01*
X75500487Y-35311620D01*
X75522498Y-35384180D01*
X75581463Y-35494494D01*
X75660815Y-35591185D01*
X75757506Y-35670537D01*
X75867820Y-35729502D01*
X75987518Y-35765812D01*
X76112000Y-35778072D01*
X76676250Y-35775000D01*
X76835000Y-35616250D01*
X76835000Y-34417000D01*
X77089000Y-34417000D01*
X77089000Y-35616250D01*
X77247750Y-35775000D01*
X77812000Y-35778072D01*
X77936482Y-35765812D01*
X78056180Y-35729502D01*
X78166494Y-35670537D01*
X78263185Y-35591185D01*
X78342537Y-35494494D01*
X78401502Y-35384180D01*
X78437812Y-35264482D01*
X78450072Y-35140000D01*
X78447000Y-34575750D01*
X78288250Y-34417000D01*
X77089000Y-34417000D01*
X76835000Y-34417000D01*
X76815000Y-34417000D01*
X76815000Y-34163000D01*
X76835000Y-34163000D01*
X76835000Y-32963750D01*
X77089000Y-32963750D01*
X77089000Y-34163000D01*
X78288250Y-34163000D01*
X78307510Y-34143740D01*
X84367000Y-34143740D01*
X84367000Y-34436260D01*
X84424068Y-34723158D01*
X84536010Y-34993411D01*
X84698525Y-35236632D01*
X84905368Y-35443475D01*
X85148589Y-35605990D01*
X85418842Y-35717932D01*
X85705740Y-35775000D01*
X85998260Y-35775000D01*
X86285158Y-35717932D01*
X86555411Y-35605990D01*
X86798632Y-35443475D01*
X87005475Y-35236632D01*
X87122000Y-35062240D01*
X87238525Y-35236632D01*
X87445368Y-35443475D01*
X87688589Y-35605990D01*
X87958842Y-35717932D01*
X88245740Y-35775000D01*
X88538260Y-35775000D01*
X88825158Y-35717932D01*
X89095411Y-35605990D01*
X89338632Y-35443475D01*
X89470487Y-35311620D01*
X89492498Y-35384180D01*
X89551463Y-35494494D01*
X89630815Y-35591185D01*
X89727506Y-35670537D01*
X89837820Y-35729502D01*
X89957518Y-35765812D01*
X90082000Y-35778072D01*
X90646250Y-35775000D01*
X90805000Y-35616250D01*
X90805000Y-34417000D01*
X91059000Y-34417000D01*
X91059000Y-35616250D01*
X91217750Y-35775000D01*
X91782000Y-35778072D01*
X91906482Y-35765812D01*
X92026180Y-35729502D01*
X92136494Y-35670537D01*
X92233185Y-35591185D01*
X92312537Y-35494494D01*
X92371502Y-35384180D01*
X92407812Y-35264482D01*
X92420072Y-35140000D01*
X92417000Y-34575750D01*
X92258250Y-34417000D01*
X91059000Y-34417000D01*
X90805000Y-34417000D01*
X90785000Y-34417000D01*
X90785000Y-34163000D01*
X90805000Y-34163000D01*
X90805000Y-32963750D01*
X91059000Y-32963750D01*
X91059000Y-34163000D01*
X92258250Y-34163000D01*
X92277510Y-34143740D01*
X98337000Y-34143740D01*
X98337000Y-34436260D01*
X98394068Y-34723158D01*
X98506010Y-34993411D01*
X98668525Y-35236632D01*
X98875368Y-35443475D01*
X99118589Y-35605990D01*
X99388842Y-35717932D01*
X99675740Y-35775000D01*
X99968260Y-35775000D01*
X100255158Y-35717932D01*
X100525411Y-35605990D01*
X100768632Y-35443475D01*
X100975475Y-35236632D01*
X101092000Y-35062240D01*
X101208525Y-35236632D01*
X101415368Y-35443475D01*
X101658589Y-35605990D01*
X101928842Y-35717932D01*
X102215740Y-35775000D01*
X102508260Y-35775000D01*
X102795158Y-35717932D01*
X103065411Y-35605990D01*
X103308632Y-35443475D01*
X103440487Y-35311620D01*
X103462498Y-35384180D01*
X103521463Y-35494494D01*
X103600815Y-35591185D01*
X103697506Y-35670537D01*
X103807820Y-35729502D01*
X103927518Y-35765812D01*
X104052000Y-35778072D01*
X104616250Y-35775000D01*
X104775000Y-35616250D01*
X104775000Y-34417000D01*
X105029000Y-34417000D01*
X105029000Y-35616250D01*
X105187750Y-35775000D01*
X105752000Y-35778072D01*
X105876482Y-35765812D01*
X105996180Y-35729502D01*
X106106494Y-35670537D01*
X106203185Y-35591185D01*
X106282537Y-35494494D01*
X106341502Y-35384180D01*
X106377812Y-35264482D01*
X106390072Y-35140000D01*
X106387000Y-34575750D01*
X106228250Y-34417000D01*
X105029000Y-34417000D01*
X104775000Y-34417000D01*
X104755000Y-34417000D01*
X104755000Y-34163000D01*
X104775000Y-34163000D01*
X104775000Y-32963750D01*
X105029000Y-32963750D01*
X105029000Y-34163000D01*
X106228250Y-34163000D01*
X106247510Y-34143740D01*
X111037000Y-34143740D01*
X111037000Y-34436260D01*
X111094068Y-34723158D01*
X111206010Y-34993411D01*
X111368525Y-35236632D01*
X111575368Y-35443475D01*
X111818589Y-35605990D01*
X112088842Y-35717932D01*
X112375740Y-35775000D01*
X112668260Y-35775000D01*
X112955158Y-35717932D01*
X113225411Y-35605990D01*
X113468632Y-35443475D01*
X113675475Y-35236632D01*
X113792000Y-35062240D01*
X113908525Y-35236632D01*
X114115368Y-35443475D01*
X114358589Y-35605990D01*
X114628842Y-35717932D01*
X114915740Y-35775000D01*
X115208260Y-35775000D01*
X115495158Y-35717932D01*
X115765411Y-35605990D01*
X116008632Y-35443475D01*
X116140487Y-35311620D01*
X116162498Y-35384180D01*
X116221463Y-35494494D01*
X116300815Y-35591185D01*
X116397506Y-35670537D01*
X116507820Y-35729502D01*
X116627518Y-35765812D01*
X116752000Y-35778072D01*
X117316250Y-35775000D01*
X117475000Y-35616250D01*
X117475000Y-34417000D01*
X117729000Y-34417000D01*
X117729000Y-35616250D01*
X117887750Y-35775000D01*
X118452000Y-35778072D01*
X118576482Y-35765812D01*
X118696180Y-35729502D01*
X118806494Y-35670537D01*
X118903185Y-35591185D01*
X118982537Y-35494494D01*
X119041502Y-35384180D01*
X119077812Y-35264482D01*
X119090072Y-35140000D01*
X119087000Y-34575750D01*
X118928250Y-34417000D01*
X117729000Y-34417000D01*
X117475000Y-34417000D01*
X117455000Y-34417000D01*
X117455000Y-34163000D01*
X117475000Y-34163000D01*
X117475000Y-32963750D01*
X117729000Y-32963750D01*
X117729000Y-34163000D01*
X118928250Y-34163000D01*
X119087000Y-34004250D01*
X119090072Y-33440000D01*
X119077812Y-33315518D01*
X119041502Y-33195820D01*
X118982537Y-33085506D01*
X118903185Y-32988815D01*
X118806494Y-32909463D01*
X118696180Y-32850498D01*
X118576482Y-32814188D01*
X118452000Y-32801928D01*
X117887750Y-32805000D01*
X117729000Y-32963750D01*
X117475000Y-32963750D01*
X117316250Y-32805000D01*
X116752000Y-32801928D01*
X116627518Y-32814188D01*
X116507820Y-32850498D01*
X116397506Y-32909463D01*
X116300815Y-32988815D01*
X116221463Y-33085506D01*
X116162498Y-33195820D01*
X116140487Y-33268380D01*
X116008632Y-33136525D01*
X115765411Y-32974010D01*
X115495158Y-32862068D01*
X115208260Y-32805000D01*
X114915740Y-32805000D01*
X114628842Y-32862068D01*
X114358589Y-32974010D01*
X114115368Y-33136525D01*
X113908525Y-33343368D01*
X113792000Y-33517760D01*
X113675475Y-33343368D01*
X113468632Y-33136525D01*
X113225411Y-32974010D01*
X112955158Y-32862068D01*
X112668260Y-32805000D01*
X112375740Y-32805000D01*
X112088842Y-32862068D01*
X111818589Y-32974010D01*
X111575368Y-33136525D01*
X111368525Y-33343368D01*
X111206010Y-33586589D01*
X111094068Y-33856842D01*
X111037000Y-34143740D01*
X106247510Y-34143740D01*
X106387000Y-34004250D01*
X106390072Y-33440000D01*
X106377812Y-33315518D01*
X106341502Y-33195820D01*
X106282537Y-33085506D01*
X106203185Y-32988815D01*
X106106494Y-32909463D01*
X105996180Y-32850498D01*
X105876482Y-32814188D01*
X105752000Y-32801928D01*
X105187750Y-32805000D01*
X105029000Y-32963750D01*
X104775000Y-32963750D01*
X104616250Y-32805000D01*
X104052000Y-32801928D01*
X103927518Y-32814188D01*
X103807820Y-32850498D01*
X103697506Y-32909463D01*
X103600815Y-32988815D01*
X103521463Y-33085506D01*
X103462498Y-33195820D01*
X103440487Y-33268380D01*
X103308632Y-33136525D01*
X103065411Y-32974010D01*
X102795158Y-32862068D01*
X102508260Y-32805000D01*
X102215740Y-32805000D01*
X101928842Y-32862068D01*
X101658589Y-32974010D01*
X101415368Y-33136525D01*
X101208525Y-33343368D01*
X101092000Y-33517760D01*
X100975475Y-33343368D01*
X100768632Y-33136525D01*
X100525411Y-32974010D01*
X100255158Y-32862068D01*
X99968260Y-32805000D01*
X99675740Y-32805000D01*
X99388842Y-32862068D01*
X99118589Y-32974010D01*
X98875368Y-33136525D01*
X98668525Y-33343368D01*
X98506010Y-33586589D01*
X98394068Y-33856842D01*
X98337000Y-34143740D01*
X92277510Y-34143740D01*
X92417000Y-34004250D01*
X92420072Y-33440000D01*
X92407812Y-33315518D01*
X92371502Y-33195820D01*
X92312537Y-33085506D01*
X92233185Y-32988815D01*
X92136494Y-32909463D01*
X92026180Y-32850498D01*
X91906482Y-32814188D01*
X91782000Y-32801928D01*
X91217750Y-32805000D01*
X91059000Y-32963750D01*
X90805000Y-32963750D01*
X90646250Y-32805000D01*
X90082000Y-32801928D01*
X89957518Y-32814188D01*
X89837820Y-32850498D01*
X89727506Y-32909463D01*
X89630815Y-32988815D01*
X89551463Y-33085506D01*
X89492498Y-33195820D01*
X89470487Y-33268380D01*
X89338632Y-33136525D01*
X89095411Y-32974010D01*
X88825158Y-32862068D01*
X88538260Y-32805000D01*
X88245740Y-32805000D01*
X87958842Y-32862068D01*
X87688589Y-32974010D01*
X87445368Y-33136525D01*
X87238525Y-33343368D01*
X87122000Y-33517760D01*
X87005475Y-33343368D01*
X86798632Y-33136525D01*
X86555411Y-32974010D01*
X86285158Y-32862068D01*
X85998260Y-32805000D01*
X85705740Y-32805000D01*
X85418842Y-32862068D01*
X85148589Y-32974010D01*
X84905368Y-33136525D01*
X84698525Y-33343368D01*
X84536010Y-33586589D01*
X84424068Y-33856842D01*
X84367000Y-34143740D01*
X78307510Y-34143740D01*
X78447000Y-34004250D01*
X78450072Y-33440000D01*
X78437812Y-33315518D01*
X78401502Y-33195820D01*
X78342537Y-33085506D01*
X78263185Y-32988815D01*
X78166494Y-32909463D01*
X78056180Y-32850498D01*
X77936482Y-32814188D01*
X77812000Y-32801928D01*
X77247750Y-32805000D01*
X77089000Y-32963750D01*
X76835000Y-32963750D01*
X76676250Y-32805000D01*
X76112000Y-32801928D01*
X75987518Y-32814188D01*
X75867820Y-32850498D01*
X75757506Y-32909463D01*
X75660815Y-32988815D01*
X75581463Y-33085506D01*
X75522498Y-33195820D01*
X75500487Y-33268380D01*
X75368632Y-33136525D01*
X75125411Y-32974010D01*
X74855158Y-32862068D01*
X74568260Y-32805000D01*
X74275740Y-32805000D01*
X73988842Y-32862068D01*
X73718589Y-32974010D01*
X73475368Y-33136525D01*
X73268525Y-33343368D01*
X73152000Y-33517760D01*
X73035475Y-33343368D01*
X72828632Y-33136525D01*
X72585411Y-32974010D01*
X72315158Y-32862068D01*
X72028260Y-32805000D01*
X71735740Y-32805000D01*
X71448842Y-32862068D01*
X71178589Y-32974010D01*
X70935368Y-33136525D01*
X70728525Y-33343368D01*
X70566010Y-33586589D01*
X70454068Y-33856842D01*
X70397000Y-34143740D01*
X70397000Y-34436260D01*
X70454068Y-34723158D01*
X70566010Y-34993411D01*
X70728525Y-35236632D01*
X70935368Y-35443475D01*
X71047000Y-35518065D01*
X71047001Y-40802131D01*
X63777940Y-48071193D01*
X63646260Y-48045000D01*
X63353740Y-48045000D01*
X63066842Y-48102068D01*
X62796589Y-48214010D01*
X62553368Y-48376525D01*
X62346525Y-48583368D01*
X62230000Y-48757760D01*
X62113475Y-48583368D01*
X61906632Y-48376525D01*
X61663411Y-48214010D01*
X61393158Y-48102068D01*
X61106260Y-48045000D01*
X60813740Y-48045000D01*
X60526842Y-48102068D01*
X60256589Y-48214010D01*
X60013368Y-48376525D01*
X59806525Y-48583368D01*
X59690000Y-48757760D01*
X59573475Y-48583368D01*
X59366632Y-48376525D01*
X59123411Y-48214010D01*
X58853158Y-48102068D01*
X58566260Y-48045000D01*
X58273740Y-48045000D01*
X57986842Y-48102068D01*
X57716589Y-48214010D01*
X57473368Y-48376525D01*
X57266525Y-48583368D01*
X57104010Y-48826589D01*
X56992068Y-49096842D01*
X56935000Y-49383740D01*
X45847000Y-49383740D01*
X45847000Y-40493740D01*
X62015000Y-40493740D01*
X62015000Y-40786260D01*
X62072068Y-41073158D01*
X62184010Y-41343411D01*
X62346525Y-41586632D01*
X62553368Y-41793475D01*
X62796589Y-41955990D01*
X63066842Y-42067932D01*
X63353740Y-42125000D01*
X63646260Y-42125000D01*
X63933158Y-42067932D01*
X64203411Y-41955990D01*
X64446632Y-41793475D01*
X64578487Y-41661620D01*
X64600498Y-41734180D01*
X64659463Y-41844494D01*
X64738815Y-41941185D01*
X64835506Y-42020537D01*
X64945820Y-42079502D01*
X65065518Y-42115812D01*
X65190000Y-42128072D01*
X66890000Y-42128072D01*
X67014482Y-42115812D01*
X67134180Y-42079502D01*
X67244494Y-42020537D01*
X67341185Y-41941185D01*
X67420537Y-41844494D01*
X67479502Y-41734180D01*
X67515812Y-41614482D01*
X67528072Y-41490000D01*
X67528072Y-39790000D01*
X67515812Y-39665518D01*
X67479502Y-39545820D01*
X67420537Y-39435506D01*
X67341185Y-39338815D01*
X67244494Y-39259463D01*
X67134180Y-39200498D01*
X67014482Y-39164188D01*
X66890000Y-39151928D01*
X65190000Y-39151928D01*
X65065518Y-39164188D01*
X64945820Y-39200498D01*
X64835506Y-39259463D01*
X64738815Y-39338815D01*
X64659463Y-39435506D01*
X64600498Y-39545820D01*
X64578487Y-39618380D01*
X64446632Y-39486525D01*
X64203411Y-39324010D01*
X63933158Y-39212068D01*
X63646260Y-39155000D01*
X63353740Y-39155000D01*
X63066842Y-39212068D01*
X62796589Y-39324010D01*
X62553368Y-39486525D01*
X62346525Y-39693368D01*
X62184010Y-39936589D01*
X62072068Y-40206842D01*
X62015000Y-40493740D01*
X45847000Y-40493740D01*
X45847000Y-31877000D01*
X129413000Y-31877000D01*
X129413000Y-92583000D01*
G37*
%TD.AperFunction*%
%TD*%
M02*
